<svg xmlns="http://www.w3.org/2000/svg" viewBox="0 0 1921.35 1082.03"><defs><style>.cls-1{isolation:isolate;}.cls-2{fill:#12101a;}.cls-3{fill:#383838;}.cls-4{fill:#201055;}.cls-4,.cls-5{opacity:0.2;}.cls-5,.cls-7{fill:#220086;}.cls-6{fill:#99f;mix-blend-mode:overlay;}</style></defs><title>bcg_footer_1</title><g class="cls-1"><g id="Layer_2" data-name="Layer 2"><g id="Layer_1-2" data-name="Layer 1"><rect class="cls-2" width="1920" height="1080"/><path class="cls-3" d="M152.33,907.56c3.22,0,3.23-5,0-5s-3.22,5,0,5Z"/><path class="cls-4" d="M241.32,541.49a77.13,77.13,0,0,1,21.86,53.35,74,74,0,0,0-66.62-2.28c-.7.32-1.4.65-2.09,1a73.77,73.77,0,0,0-11.07,6.85.5.5,0,0,1,0-.12A74,74,0,0,0,79.24,547.68l-1,.47A73.64,73.64,0,0,0,62.08,559a1,1,0,0,0-.09-.13,73.87,73.87,0,0,0-59.7-34.51c-.66,0-1.33,0-2-.05V388.53a62.31,62.31,0,0,1,52.34,29.28,62.4,62.4,0,0,1,102.43,35,62.39,62.39,0,0,1,86.26,88.69Z"/><path class="cls-4" d="M458.62,728.77a77.27,77.27,0,0,1-24,56.06A77.59,77.59,0,0,1,450,795.49q2.1,1.86,4,3.87c-30.65,7.74-48.4,32.79-49.16,49.25l-.57.34,0-.05-.1-.22c-50.22,4.85-75.65,53.62-75.65,81.91a99.28,99.28,0,0,0,83.68,98.05l-18.59,51.09h-1l18.59-51.09a99.28,99.28,0,0,1-83.68-98.05c0-28.29,25.43-77.06,75.65-81.91a91.85,91.85,0,0,0-83.75-54.15,93.19,93.19,0,0,0-11.65.73,91.82,91.82,0,0,0-22.19-89.8,73.9,73.9,0,0,0,4.31-85.61c-.14-.23-.29-.45-.45-.67a77.6,77.6,0,0,1,51.25,43.44,77.51,77.51,0,0,1,117.92,66.15Z"/><path class="cls-4" d="M992.69,857.83c-2.16-.39-4.37-.69-6.6-.9a77.4,77.4,0,0,0-67.65,28.69,77.12,77.12,0,0,0-42.13-17.38c-.67-.06-1.33-.12-2-.16a77.44,77.44,0,0,0-13.21.23c.3-.93.59-1.87.85-2.82a78.89,78.89,0,0,1,130.73-7.66Z"/><path class="cls-4" d="M1427.13,936.53q-.06-.82-.09-1.65c1,.32,1.91.66,2.85,1Z"/><path class="cls-4" d="M1474,861.09a76.33,76.33,0,0,0-37.61,33.67h0a75.86,75.86,0,0,0-9.06,29.6,77.37,77.37,0,0,0-.26,10.52,75.41,75.41,0,0,0-10.3-2.63q-3.29-.62-6.68-.93a77.75,77.75,0,0,0-10.66-.25l-.42,0a75.81,75.81,0,0,0-41.56,15.08,77.5,77.5,0,0,0-9.36,8.29,148.3,148.3,0,0,0-19.31-11c-26.29-12.78-76.72-30-134.17-12.49-4.28,1.3-8.59,2.79-12.94,4.5q-1.42-3.07-3.1-6a77.46,77.46,0,0,0-124.4-13.9,77.67,77.67,0,0,0-43.91-52.42c-1.24-.55-2.49-1.06-3.77-1.54-2.11-.8-4.25-1.52-6.45-2.14a79.1,79.1,0,0,1,55.57-9.46,79,79,0,0,1,77-96.28,78.42,78.42,0,0,1,33.52,7.47c0-.51,0-1,0-1.55a65.5,65.5,0,0,1,130.71-6.07,93.78,93.78,0,0,1,125.79,68.44,58.51,58.51,0,0,1,29.26-7.83c1.2,0,2.38,0,3.56.11,0,.93.09,1.85.17,2.78a76.08,76.08,0,0,0,18.44,44Z"/><path class="cls-2" d="M1026.06,1076.8a93.91,93.91,0,0,1,34.08-28l1.2-.57a93.55,93.55,0,0,1,114,28.55Z"/><path class="cls-5" d="M1921.21,513.6V1082H392.81l.42-1.15.39-1.07,18.59-51.09a99.28,99.28,0,0,1-83.68-98.05c0-28.29,25.43-77.06,75.65-81.91l.1.22,0,.05.57-.34c.76-16.46,18.51-41.51,49.16-49.25A77.21,77.21,0,0,1,474.45,838a3.58,3.58,0,0,1,.09.45h0a78.57,78.57,0,0,1,.72,25.71c-1,.24-2,.49-3,.77l2.75.9c.09-.55.17-1.11.24-1.67a78.14,78.14,0,0,1,17.57-2,76.93,76.93,0,0,1,25.1,4.17c.36.11.72.24,1.08.37a77.49,77.49,0,0,1,25.8,15.49,78.9,78.9,0,0,1,8.71,9.29,151.11,151.11,0,0,1,20.63-9.29c27.87-10.47,80.65-23.2,137.26,0q6.33,2.6,12.7,5.79c1.16-2,2.39-3.92,3.72-5.79a78.9,78.9,0,0,1,127.49-2.34,78.33,78.33,0,0,1,6.41-13.94l.22-.37c-.26,1-.55,1.89-.85,2.82a77.44,77.44,0,0,1,13.21-.23c.66,0,1.32.1,2,.16a77.12,77.12,0,0,1,42.13,17.38,77.4,77.4,0,0,1,67.65-28.69c2.23.21,4.44.51,6.6.9.41.53.8,1.06,1.19,1.6.67.91,1.3,1.83,1.92,2.76.61-.42,1.23-.82,1.85-1.22.78-.5,1.56-1,2.36-1.46,2.2.62,4.34,1.34,6.45,2.14,1.28.48,2.53,1,3.77,1.54a77.67,77.67,0,0,1,43.91,52.42,77.46,77.46,0,0,1,124.4,13.9q1.68,2.93,3.1,6c4.35-1.71,8.66-3.2,12.94-4.5,57.45-17.53,107.88-.29,134.17,12.49a148.3,148.3,0,0,1,19.31,11,77.5,77.5,0,0,1,9.36-8.29A75.81,75.81,0,0,1,1399,931.09l.42,0a77.75,77.75,0,0,1,10.66.25q3.39.31,6.68.93a75.41,75.41,0,0,1,10.3,2.63q0,.82.09,1.65l2.76-.63c-.94-.36-1.88-.7-2.85-1a77.37,77.37,0,0,1,.26-10.52,75.86,75.86,0,0,1,9.06-29.6h0A76.33,76.33,0,0,1,1474,861.09a76.08,76.08,0,0,1-18.44-44c-.08-.93-.13-1.85-.17-2.78a76.1,76.1,0,0,1,121.55-64.16,76.11,76.11,0,0,1,73.39-38.46l.59.06a74.71,74.71,0,0,1,9,1.44,76.15,76.15,0,0,1,25.22-72.39A61.24,61.24,0,0,1,1777.47,562a61.25,61.25,0,0,1,103.3-24.87A61.27,61.27,0,0,1,1921.21,513.6Z"/><path class="cls-5" d="M472.28,864.88c1-.28,2-.53,3-.77-.07.56-.15,1.12-.24,1.67Z"/><path class="cls-5" d="M864.56,851.5a77.18,77.18,0,0,1-2.6,14l-.22.37a78.33,78.33,0,0,0-6.41,13.94,78.9,78.9,0,0,0-127.49,2.34c-1.33,1.87-2.56,3.8-3.72,5.79q-6.36-3.21-12.7-5.79c-56.61-23.2-109.39-10.47-137.26,0a151.11,151.11,0,0,0-20.63,9.29,78.9,78.9,0,0,0-8.71-9.29A77.49,77.49,0,0,0,519,866.65c-.36-.13-.72-.26-1.08-.37a76.93,76.93,0,0,0-25.1-4.17,78.14,78.14,0,0,0-17.57,2,78.57,78.57,0,0,0-.72-25.71h0a3.58,3.58,0,0,0-.09-.45A77.21,77.21,0,0,0,454,799.36a75.47,75.47,0,0,1,8.54-1.65,63.74,63.74,0,0,1,14.52-.48A57.17,57.17,0,0,1,505,807.55,92.06,92.06,0,0,1,634.16,752.1a64.29,64.29,0,0,1,127.2,17.84c0,.5-.1,1-.16,1.5A77.46,77.46,0,0,1,864.56,851.5Z"/><path class="cls-5" d="M1000,859.51c-.8.48-1.58,1-2.36,1.46-.62.4-1.24.8-1.85,1.22-.62-.93-1.25-1.85-1.92-2.76-.39-.54-.78-1.07-1.19-1.6C995.18,858.27,997.62,858.84,1000,859.51Z"/><path class="cls-5" d="M403.87,848.61l-.57.34,0-.05-.1-.22Z"/><path class="cls-6" d="M411.21,1028.64l-18.59,51.09H.08V882.14H.29V524.28c.67,0,1.34,0,2,.05A73.87,73.87,0,0,1,62,558.84a1,1,0,0,1,.09.13,73.64,73.64,0,0,1,16.18-10.82l1-.47a74,74,0,0,1,104.14,52.61.5.5,0,0,0,0,.12,73.77,73.77,0,0,1,11.07-6.85c.69-.35,1.39-.68,2.09-1a74,74,0,0,1,66.62,2.28c.67.38,1.34.76,2,1.15a73.82,73.82,0,0,1,24.27,23.19c.16.22.31.44.45.67a73.9,73.9,0,0,1-4.31,85.61,91.82,91.82,0,0,1,22.19,89.8,93.19,93.19,0,0,1,11.65-.73,91.85,91.85,0,0,1,83.75,54.15c-50.22,4.85-75.65,53.62-75.65,81.91A99.28,99.28,0,0,0,411.21,1028.64Z"/><rect class="cls-6" x="0.08" y="524.28" width="0.21" height="357.86"/><polygon class="cls-6" points="392.62 1079.73 392.23 1080.8 0.08 1080.8 0.08 1079.73 392.62 1079.73"/><path class="cls-2" d="M802,1080.8H.08V678.73H.29a54.59,54.59,0,0,1,45.6,25.63A54.61,54.61,0,0,1,135.53,735,54.61,54.61,0,0,1,211,812.6,67.82,67.82,0,0,1,227.44,879a69.68,69.68,0,0,1,8.6-.53,67.87,67.87,0,0,1,62,40.2,67.87,67.87,0,0,1,100.87,40.2,105.11,105.11,0,0,1,69.41,2.29,73.1,73.1,0,0,1,66.23-66c.2,0,.41,0,.61-.05q3-.25,6-.25a73.11,73.11,0,0,1,73.12,73.12c0,.58,0,1.15,0,1.73a88.16,88.16,0,0,1,123.37,99.16,88.2,88.2,0,0,1,64.41,12Z"/><path class="cls-2" d="M943.25,1069.6a87.3,87.3,0,0,1,9.19,11.2h-145A88.07,88.07,0,0,1,943,1069.3,2.69,2.69,0,0,1,943.25,1069.6Z"/><path class="cls-2" d="M1038.8,1067.25a87.52,87.52,0,0,1,41.81,13.55H986.2a87.65,87.65,0,0,1,47.21-13.71c1.73,0,3.45.05,5.15.15Z"/><path class="cls-2" d="M1921.35,634.27V1080.8H1471.91q-.33-3.45-.33-7A73.23,73.23,0,0,1,1510.7,1009,73.12,73.12,0,0,1,1488,956c0-.65,0-1.29,0-1.92a73.31,73.31,0,0,1,5-24.78.76.76,0,0,0,.06-.16,73.38,73.38,0,0,1,79.77-45.52,72.57,72.57,0,0,1,26.66,9.83A73.28,73.28,0,0,1,1666.46,850a74.75,74.75,0,0,1,9.29.57,73.34,73.34,0,0,1,17.72-71.67,59.39,59.39,0,0,1-7.15-11.53A59,59,0,0,1,1775,695,59,59,0,0,1,1871.87,662,58.93,58.93,0,0,1,1921.35,634.27Z"/><path class="cls-2" d="M1682.48,1082h-600q2.05-1.14,4.17-2.17l1.23-.58a93.68,93.68,0,0,1,57.4-7.2l.62.12a93.65,93.65,0,0,1,48.63-103.82l1.73-.86a93.6,93.6,0,0,1,80-.77l.55.25c0-.61,0-1.22,0-1.83a77.63,77.63,0,0,1,43.73-69.82c.35-.18.71-.35,1.07-.51h0a2,2,0,0,1,.3-.14A77.59,77.59,0,0,1,1431.55,958a111.11,111.11,0,0,1,149,81v0c1.27-.73,2.56-1.43,3.88-2.08.49-.25,1-.48,1.48-.71a69.43,69.43,0,0,1,96.56,45.78Z"/><line class="cls-7" x1="1919.88" y1="990.59" x2="1919.88" y2="1076.8"/></g></g></g></svg>