<svg xmlns="http://www.w3.org/2000/svg" xmlns:xlink="http://www.w3.org/1999/xlink" viewBox="0 0 1922.17 694.59"><defs><style>.cls-1,.cls-10,.cls-11,.cls-12,.cls-13,.cls-14,.cls-15,.cls-16,.cls-17,.cls-18,.cls-19,.cls-2,.cls-20,.cls-21,.cls-22,.cls-23,.cls-24,.cls-25,.cls-26,.cls-27,.cls-28,.cls-29,.cls-3,.cls-30,.cls-31,.cls-32,.cls-33,.cls-34,.cls-35,.cls-36,.cls-37,.cls-38,.cls-39,.cls-4,.cls-40,.cls-41,.cls-42,.cls-5,.cls-6,.cls-7,.cls-8,.cls-9{fill:none;stroke-miterlimit:10;stroke-width:3px;}.cls-1{stroke:url(#linear-gradient);}.cls-2{stroke:url(#linear-gradient-2);}.cls-3{stroke:url(#linear-gradient-3);}.cls-4{stroke:url(#linear-gradient-4);}.cls-5{stroke:url(#linear-gradient-5);}.cls-6{stroke:url(#linear-gradient-6);}.cls-7{stroke:url(#linear-gradient-7);}.cls-8{stroke:url(#linear-gradient-8);}.cls-9{stroke:url(#linear-gradient-9);}.cls-10{stroke:url(#linear-gradient-10);}.cls-11{stroke:url(#linear-gradient-11);}.cls-12{stroke:url(#linear-gradient-12);}.cls-13{stroke:url(#linear-gradient-13);}.cls-14{stroke:url(#linear-gradient-14);}.cls-15{stroke:url(#linear-gradient-15);}.cls-16{stroke:url(#linear-gradient-16);}.cls-17{stroke:url(#linear-gradient-17);}.cls-18{stroke:url(#linear-gradient-18);}.cls-19{stroke:url(#linear-gradient-19);}.cls-20{stroke:url(#linear-gradient-20);}.cls-21{stroke:url(#linear-gradient-21);}.cls-22{stroke:url(#linear-gradient-22);}.cls-23{stroke:url(#linear-gradient-23);}.cls-24{stroke:url(#linear-gradient-24);}.cls-25{stroke:url(#linear-gradient-25);}.cls-26{stroke:url(#linear-gradient-26);}.cls-27{stroke:url(#linear-gradient-27);}.cls-28{stroke:url(#linear-gradient-28);}.cls-29{stroke:url(#linear-gradient-29);}.cls-30{stroke:url(#linear-gradient-30);}.cls-31{stroke:url(#linear-gradient-31);}.cls-32{stroke:url(#linear-gradient-32);}.cls-33{stroke:url(#linear-gradient-33);}.cls-34{stroke:url(#linear-gradient-34);}.cls-35{stroke:url(#linear-gradient-35);}.cls-36{stroke:url(#linear-gradient-36);}.cls-37{stroke:url(#linear-gradient-37);}.cls-38{stroke:url(#linear-gradient-38);}.cls-39{stroke:url(#linear-gradient-39);}.cls-40{stroke:url(#linear-gradient-40);}.cls-41{stroke:url(#linear-gradient-41);}.cls-42{stroke:url(#linear-gradient-42);}</style><linearGradient id="linear-gradient" y1="347.3" x2="1922.05" y2="347.3" gradientUnits="userSpaceOnUse"><stop offset="0" stop-color="#d12af6" stop-opacity="0.3"/><stop offset="0.57" stop-color="#681bde" stop-opacity="0.72"/><stop offset="1" stop-color="#2010cd"/></linearGradient><linearGradient id="linear-gradient-2" x1="0.55" y1="346.75" x2="1922.06" y2="346.75" xlink:href="#linear-gradient"/><linearGradient id="linear-gradient-3" x1="0.55" y1="346.14" x2="1922.08" y2="346.14" xlink:href="#linear-gradient"/><linearGradient id="linear-gradient-4" x1="0.55" y1="345.54" x2="1922.09" y2="345.54" xlink:href="#linear-gradient"/><linearGradient id="linear-gradient-5" x1="0.55" y1="344.93" x2="1922.1" y2="344.93" xlink:href="#linear-gradient"/><linearGradient id="linear-gradient-6" x1="0.55" y1="344.33" x2="1922.12" y2="344.33" xlink:href="#linear-gradient"/><linearGradient id="linear-gradient-7" x1="0.55" y1="343.72" x2="1922.13" y2="343.72" xlink:href="#linear-gradient"/><linearGradient id="linear-gradient-8" x1="0.55" y1="343.12" x2="1922.14" y2="343.12" xlink:href="#linear-gradient"/><linearGradient id="linear-gradient-9" x1="0.55" y1="342.51" x2="1922.14" y2="342.51" xlink:href="#linear-gradient"/><linearGradient id="linear-gradient-10" x1="0.55" y1="341.9" x2="1922.15" y2="341.9" xlink:href="#linear-gradient"/><linearGradient id="linear-gradient-11" x1="0.55" y1="343.54" x2="1922.16" y2="343.54" xlink:href="#linear-gradient"/><linearGradient id="linear-gradient-12" x1="0.55" y1="347.43" x2="1922.16" y2="347.43" xlink:href="#linear-gradient"/><linearGradient id="linear-gradient-13" x1="0.55" y1="351.34" x2="1922.16" y2="351.34" xlink:href="#linear-gradient"/><linearGradient id="linear-gradient-14" x1="0.55" y1="355.25" x2="1922.17" y2="355.25" xlink:href="#linear-gradient"/><linearGradient id="linear-gradient-15" x1="0.55" y1="359.17" x2="1922.17" y2="359.17" xlink:href="#linear-gradient"/><linearGradient id="linear-gradient-16" x1="0.55" y1="363.09" x2="1922.16" y2="363.09" xlink:href="#linear-gradient"/><linearGradient id="linear-gradient-17" x1="0.55" y1="367.03" x2="1922.16" y2="367.03" xlink:href="#linear-gradient"/><linearGradient id="linear-gradient-18" x1="0.55" y1="370.96" x2="1922.16" y2="370.96" xlink:href="#linear-gradient"/><linearGradient id="linear-gradient-19" x1="0.55" y1="374.91" x2="1922.15" y2="374.91" xlink:href="#linear-gradient"/><linearGradient id="linear-gradient-20" x1="0.55" y1="378.85" x2="1922.15" y2="378.85" xlink:href="#linear-gradient"/><linearGradient id="linear-gradient-21" x1="0.55" y1="382.81" x2="1922.14" y2="382.81" xlink:href="#linear-gradient"/><linearGradient id="linear-gradient-22" x1="0.55" y1="386.76" x2="1922.13" y2="386.76" xlink:href="#linear-gradient"/><linearGradient id="linear-gradient-23" x1="0.55" y1="390.72" x2="1922.12" y2="390.72" xlink:href="#linear-gradient"/><linearGradient id="linear-gradient-24" x1="0.55" y1="394.69" x2="1922.11" y2="394.69" xlink:href="#linear-gradient"/><linearGradient id="linear-gradient-25" x1="0.55" y1="398.66" x2="1922.1" y2="398.66" xlink:href="#linear-gradient"/><linearGradient id="linear-gradient-26" x1="0.55" y1="402.63" x2="1922.09" y2="402.63" xlink:href="#linear-gradient"/><linearGradient id="linear-gradient-27" x1="0.55" y1="406.61" x2="1922.07" y2="406.61" xlink:href="#linear-gradient"/><linearGradient id="linear-gradient-28" x1="0.55" y1="410.14" x2="1922.06" y2="410.14" xlink:href="#linear-gradient"/><linearGradient id="linear-gradient-29" x1="0.55" y1="408.35" x2="1922.05" y2="408.35" xlink:href="#linear-gradient"/><linearGradient id="linear-gradient-30" x1="0.55" y1="406.18" x2="1922.04" y2="406.18" xlink:href="#linear-gradient"/><linearGradient id="linear-gradient-31" x1="0.55" y1="401.21" x2="1922.02" y2="401.21" xlink:href="#linear-gradient"/><linearGradient id="linear-gradient-32" x1="0.55" y1="392.95" x2="1922.01" y2="392.95" xlink:href="#linear-gradient"/><linearGradient id="linear-gradient-33" x1="0.55" y1="392.29" x2="1922" y2="392.29" xlink:href="#linear-gradient"/><linearGradient id="linear-gradient-34" x1="0.55" y1="391.68" x2="1921.98" y2="391.68" xlink:href="#linear-gradient"/><linearGradient id="linear-gradient-35" x1="0.55" y1="391.12" x2="1921.97" y2="391.12" xlink:href="#linear-gradient"/><linearGradient id="linear-gradient-36" x1="0.55" y1="390.61" x2="1921.96" y2="390.61" xlink:href="#linear-gradient"/><linearGradient id="linear-gradient-37" x1="0.55" y1="390.17" x2="1921.95" y2="390.17" xlink:href="#linear-gradient"/><linearGradient id="linear-gradient-38" x1="0.55" y1="389.79" x2="1921.94" y2="389.79" xlink:href="#linear-gradient"/><linearGradient id="linear-gradient-39" x1="0.55" y1="389.47" x2="1921.93" y2="389.47" xlink:href="#linear-gradient"/><linearGradient id="linear-gradient-40" x1="0.55" y1="389.24" x2="1921.92" y2="389.24" xlink:href="#linear-gradient"/><linearGradient id="linear-gradient-41" x1="0.55" y1="389.08" x2="1921.91" y2="389.08" xlink:href="#linear-gradient"/><linearGradient id="linear-gradient-42" x1="0.55" y1="389.01" x2="1921.9" y2="389.01" xlink:href="#linear-gradient"/></defs><title>E1</title><g id="Layer_2" data-name="Layer 2"><g id="Layer_1-2" data-name="Layer 1"><path class="cls-1" d="M1920.55.07s-13,298.49-485.42,79c-496.52-230.7-213.54,506.62-832.29,529.51C175.4,624.38.55,693.2.55,693.2"/><path class="cls-2" d="M1920.57,11.74S1901,306.29,1433.86,92.05c-67.72-30.85-121.14-44.15-164.41-44.18-178.51-.75-180.28,221.6-308.37,385.41C890.92,523,788.06,599.13,600.44,604.6q-43.31,1.33-83.42,3C153.14,623.55,3.94,680.35.55,680.35"/><path class="cls-3" d="M1920.58,23.41S1895,312.86,1432.6,105c-67.36-30.27-120.9-43.11-164.34-43.71C1087.13,58.79,1087.65,270.51,958,429.41c-71.69,87.86-172.63,167.24-360,171.23-28.69.7-56.4,1.29-83.16,2.11-361,11-507.56,64.76-514.34,64.76"/><path class="cls-4" d="M1920.6,35.08S1888.74,320,1431.33,118c-67-29.6-120.64-42.15-164.27-43.25-183.75-4.63-181,196.8-312.15,350.78-73.24,86-172.25,168.2-359.26,171.14-28.5.44-56.11.74-82.89,1.2C154.61,604,10.72,654.66.55,654.66"/><path class="cls-5" d="M1920.62,46.75S1882.44,327.23,1430.07,131c-66.71-28.94-120.4-41.21-164.21-42.79-186.37-6.75-181.46,184.38-314,333.47C877,505.82,780,591.13,593.26,592.71c-28.32.24-55.84.2-82.63.3C155.38,594.22,14.11,641.82.55,641.82"/><path class="cls-6" d="M1920.64,58.42s-44.51,276-491.83,85.56c-66.39-28.27-120.15-40.26-164.14-42.33-189-8.89-182,172-315.94,316.16-76.45,82.3-171.45,170.71-357.87,170.94-28.14,0-55.55-.34-82.36-.61C156.16,584.54,17.5,629,.55,629"/><path class="cls-7" d="M1920.65,70.09S1869.8,341.67,1427.54,157c-66.06-27.59-119.9-39.32-164.07-41.86-191.63-11-182.61,159.54-317.82,298.84-78.11,80.47-171.06,172-357.18,170.85-28-.18-55.27-.88-82.1-1.52C157,574.91,20.89,616.13.55,616.13"/><path class="cls-8" d="M1920.67,81.76s-57.22,267.17-494.39,88.18c-65.75-26.91-119.66-38.38-164-41.4C1068,115.31,1079,275.64,942.56,410.07,862.75,488.71,771.9,583.33,586.07,580.82c-27.77-.37-55-1.41-81.83-2.42C157.8,565.34,24.28,603.29.55,603.29"/><path class="cls-9" d="M1920.69,93.43S1857.08,356.2,1425,182.93c-65.43-26.25-119.41-37.46-163.93-40.94-196.9-15.43-184,134.63-321.61,264.22C857.94,483,769.22,580.74,583.67,576.86c-27.58-.58-54.69-2-81.56-3.33C158.63,555.81,27.67,590.44.55,590.44"/><path class="cls-10" d="M1920.7,105.1s-70,258.4-496.95,90.81c-65.12-25.56-119.17-36.53-163.87-40.48C1060.34,137.8,1075,277.57,936.38,402.34c-83.3,75-169.85,175.82-355.1,170.56-27.4-.78-54.41-2.48-81.3-4.24C159.49,546.34,31.06,577.6.55,577.6"/><path class="cls-11" d="M1920.72,116.77s-76.41,254.06-498.23,92.12c-64.82-24.88-118.93-35.6-163.81-40C1056.51,149,1072.92,278.49,933.3,398.47,848.19,471.6,763.85,575.59,578.88,568.93c-27.21-1-54.12-3-81-5.14-337.51-26.88-463.4,1-497.31,1"/><path class="cls-12" d="M1920.74,128.44s-82.85,249.73-499.52,93.44c-64.51-24.2-118.68-34.69-163.73-39.56-204.82-22.11-186.73,97.06-327.28,212.28-87,71.29-169,178.42-353.72,170.37-27-1.18-53.84-3.53-80.76-6.05-334.5-31.38-457.88-7-495.18-7"/><path class="cls-13" d="M1920.75,140.11S1831.46,385.55,1420,234.86a705.33,705.33,0,0,0-163.67-39.09c-207.46-24.38-187.77,84.46-329.17,195-88.83,69.43-168.63,179.73-353,170.28-26.84-1.38-53.54-4-80.49-7-331.49-35.82-452.36-15-493-15"/><path class="cls-14" d="M1920.77,151.79S1825,393,1418.69,247.84c-63.9-22.82-118.19-32.87-163.6-38.63C1045,182.56,1066.22,281,924,386.87,833.28,454.42,755.81,567.91,571.7,557c-26.66-1.57-53.25-4.56-80.23-7.86C163,509,44.63,526.22.55,526.22"/><path class="cls-15" d="M1920.79,163.46s-102.24,236.92-503.36,97.36c-63.6-22.12-118-32-163.53-38.16C1041.16,193.71,1063.85,281.79,921,383,828.24,448.66,753.13,565.36,569.3,553.08c-26.47-1.77-53-5.08-80-8.77C163.89,499.75,48,513.37.55,513.37"/><path class="cls-16" d="M1920.81,175.13s-108.74,232.7-504.64,98.68c-63.31-21.43-117.7-31.06-163.47-37.71-215.37-31.26-191.28,46.4-334.84,143-94.7,63.74-167.41,183.69-351,170-26.29-2-52.67-5.59-79.7-9.68C164.79,490.59,51.41,500.53.55,500.53"/><path class="cls-17" d="M1920.82,186.8s-115.25,228.52-505.92,100c-63-20.73-117.45-30.16-163.4-37.24-218-33.59-192.57,33.6-336.73,125.71-96.72,61.8-167,185-350.26,169.89-26.1-2.15-52.38-6.09-79.43-10.58C165.68,481.48,54.8,487.68.55,487.68"/><path class="cls-18" d="M1920.84,198.47s-121.78,224.37-507.2,101.3c-62.72-20-117.21-29.27-163.33-36.78-220.65-35.93-193.92,20.76-338.62,108.4-98.79,59.83-166.6,186.38-349.58,169.8C536.2,538.84,510,534.6,483,529.7,166.58,472.43,58.19,474.84.55,474.84"/><path class="cls-19" d="M1920.86,210.14s-128.33,220.25-508.49,102.62c-62.42-19.32-117-28.38-163.26-36.32-223.27-38.29-195.31,7.86-340.51,91.09-100.87,57.82-166.19,187.73-348.88,169.7-25.73-2.54-51.79-7.09-78.9-12.4C167.47,463.42,61.58,462,.55,462"/><path class="cls-20" d="M1920.87,221.81S1786,438,1411.11,325.74c-62.14-18.6-116.72-27.49-163.2-35.86-225.9-40.66-196.74-5.1-342.4,73.78-103,55.77-165.78,189.09-348.19,169.6-25.54-2.73-51.5-7.58-78.63-13.3C168.35,454.47,65,449.15.55,449.15"/><path class="cls-21" d="M1920.89,233.48s-141.47,212.1-511,105.24c-61.85-17.88-116.47-26.6-163.13-35.39-228.53-43.05-198.23-18.13-344.3,56.46C797.29,413.48,737.05,550.25,554.93,529.3c-25.36-2.92-51.21-8.07-78.37-14.21C169.23,445.56,68.36,436.3.55,436.3"/><path class="cls-22" d="M1920.91,245.15S1772.85,453.23,1408.58,351.7C1347,334.54,1292.36,326,1245.52,316.77c-231.15-45.45-199.74-31.21-346.18,39.15-107.3,51.56-165,191.84-346.81,169.42-25.17-3.11-50.92-8.56-78.1-15.12C170.1,436.7,71.75,423.46.55,423.46"/><path class="cls-23" d="M1920.92,256.82s-154.66,204.1-513.6,107.87c-61.29-16.43-116-24.84-163-34.47-233.76-47.87-201.28-44.37-348.07,21.84C786.76,401.43,731.69,545.28,550.14,521.37c-25-3.29-50.63-9-77.84-16C171,427.89,75.14,410.61.55,410.61"/><path class="cls-24" d="M1920.94,268.49s-161.28,200.16-514.89,109.18c-61-15.7-115.72-24-162.92-34-236.38-50.29-202.85-57.58-350,4.53C781.46,395.34,729,542.81,547.74,517.41c-24.8-3.47-50.34-9.51-77.57-16.93C171.8,419.13,78.53,397.77.55,397.77"/><path class="cls-25" d="M1921,280.16s-167.91,196.25-516.17,110.49c-60.73-14.95-115.47-23.08-162.86-33.54-239-52.74-204.43-70.86-351.86-12.79-113.92,44.87-163.74,196-344.72,169.13-24.62-3.66-50.06-10-77.31-17.84C172.62,410.41,81.92,384.93.55,384.93"/><path class="cls-26" d="M1921,291.83s-174.55,192.38-517.45,111.81c-60.46-14.21-115.22-22.22-162.8-33.09-241.59-55.19-206-84.2-353.74-30.1C770.83,383,723.64,537.89,543,509.48c-24.43-3.84-49.77-10.45-77-18.74C173.43,401.73,85.31,372.08.55,372.08"/><path class="cls-27" d="M1921,303.51S1739.8,492.06,1402.26,416.62c-60.18-13.45-115-21.34-162.72-32.62-244.2-57.66-207.63-97.61-355.64-47.42C765.5,376.73,721,535.45,540.55,505.52c-24.24-4-49.48-10.91-76.77-19.65C174.22,393.1,88.71,359.24.55,359.24"/><path class="cls-28" d="M1921,315.18S1733.15,500,1401,429.6c-59.91-12.69-114.71-20.47-162.66-32.16C991.55,337.3,1029.1,286.38,880.81,332.72,760.16,370.42,718.27,533,538.16,501.56,514.1,497.35,489,490.19,461.65,481,175,384.51,92.1,346.39.55,346.39"/><path class="cls-29" d="M1921,326.85s-194.53,181-521.29,115.73c-59.64-11.91-114.46-19.6-162.6-31.69-249.38-62.64-210.84-124.59-359.42-82-122.91,35.2-162.15,201.74-342,168.74-23.87-4.38-48.93-11.82-76.24-21.46C175.74,376,95.49,333.55.55,333.55"/><path class="cls-30" d="M1921,338.52s-201.19,177.33-522.57,117.05c-59.37-11.14-114.2-18.74-162.52-31.24C984,359.2,1023.51,286.16,874.64,325,749.47,357.62,712.88,528.17,533.37,493.63c-23.69-4.56-48.65-12.28-76-22.37C176.47,367.43,98.88,320.7.55,320.7"/><path class="cls-31" d="M1921.06,350.19s-207.87,173.68-523.85,118.36c-59.1-10.35-114-17.88-162.46-30.77-254.55-67.65-214-151.81-363.2-116.67C744.14,351.12,710.18,525.76,531,489.67c-23.51-4.74-48.38-12.73-75.71-23.28C177.17,359,102.27,307.86.55,307.86"/><path class="cls-32" d="M1921.08,361.86s-214.56,170.08-525.14,119.67c-58.83-9.55-113.69-17-162.39-30.3C976.42,381,1018,285.73,868.46,317.24c-129.65,27.33-161,206.13-339.88,168.46-23.33-4.91-48.11-13.16-75.45-24.18C177.84,350.5,105.66,295,.55,295"/><path class="cls-33" d="M1921.09,373.53s-221.23,166.53-526.41,121c-58.57-8.74-113.44-16.16-162.32-29.85-259.7-72.72-217.13-179.24-367-151.29C733.49,338,704.78,521,526.18,481.74c-23.14-5.08-47.84-13.6-75.18-25.09C178.48,342.09,109.05,282.17.55,282.17"/><path class="cls-34" d="M1921.11,385.2s-227.91,163-527.69,122.3c-58.3-7.92-113.18-15.3-162.26-29.38-262.27-75.27-218.64-193-368.87-168.61C728.19,331.3,702.07,518.6,523.79,477.78c-23-5.26-47.58-14-74.91-26C179.1,333.7,112.44,269.32.55,269.32"/><path class="cls-35" d="M1921.13,396.87s-234.59,159.57-529,123.61c-58-7.09-112.91-14.44-162.19-28.92C965.14,413.74,1009.84,284.71,859.2,305.64c-136.29,18.94-159.84,210.6-337.81,168.17-22.78-5.43-47.32-14.46-74.64-26.9C179.68,325.34,115.83,256.48.55,256.48"/><path class="cls-36" d="M1921.15,408.54S1679.89,564.7,1390.89,533.46c-57.77-6.24-112.66-13.58-162.12-28.45-267.38-80.4-221.58-220.73-372.66-203.24C717.64,317.8,696.64,513.88,519,469.85,496.4,464.25,471.94,455,444.62,442,180.24,317,119.22,243.63.55,243.63"/><path class="cls-37" d="M1921.16,420.21S1673.24,573,1389.62,546.45c-57.49-5.39-112.39-12.73-162-28-269.93-83-223-234.63-374.55-220.54C712.4,311,693.92,511.53,516.6,465.89c-22.42-5.77-46.8-15.32-74.11-28.72C180.76,308.69,122.61,230.79.55,230.79"/><path class="cls-38" d="M1921.18,431.88s-254.57,149.51-532.82,127.55c-57.22-4.52-112.13-11.88-162-27.53C953.9,446.34,1002,283.32,849.94,294,707.18,304.1,691.19,509.19,514.2,461.92,492,456,467.65,446.19,440.36,432.3,181.24,300.4,126,217.94.55,217.94"/><path class="cls-39" d="M1921.2,443.55S1660,589.81,1387.1,572.41c-56.95-3.63-111.87-11-161.92-27.07-275-88.16-225.73-262.55-378.33-255.17-144.85,7-158.39,216.7-335,167.79-22.06-6.11-46.31-16.15-73.58-30.53C181.7,292.13,129.39,205.1.55,205.1"/><path class="cls-40" d="M1921.21,455.23S1653.4,598.29,1385.83,585.4c-56.67-2.74-111.57-10.27-161.85-26.61C946.59,467.55,997,282.23,843.76,286.3c-146.92,3.91-158,218.25-334.35,167.7-21.88-6.28-46.06-16.57-73.31-31.44C182.11,283.88,132.78,192.25.55,192.25"/><path class="cls-41" d="M1921.23,466.9s-274.41,139.92-536.66,131.48c-56.4-1.82-111.33-9.37-161.79-26.15-280-93.62-228.28-290.59-382.1-289.8-149,.77-157.75,220-333.66,167.6-21.71-6.41-45.83-17-73-32.34C182.49,275.65,136.17,179.41.55,179.41"/><path class="cls-42" d="M1921.25,478.57s-417.07,203.11-699.66,107.11S992.09,281,837.59,278.57C668.1,275.86,680.84,558.21,431.84,412.82S139.56,166.57.55,166.57"/></g></g></svg>