<svg xmlns="http://www.w3.org/2000/svg" xmlns:xlink="http://www.w3.org/1999/xlink" viewBox="0 0 400 400"><defs><style>.cls-1{isolation:isolate;}.cls-2{fill:#f6f6f6;}.cls-3{fill:url(#linear-gradient);}.cls-4{fill:#e4e4e4;}.cls-5{fill:#e3e3e3;}.cls-17,.cls-6{fill:#c1c0c5;}.cls-10,.cls-11,.cls-12,.cls-13,.cls-14,.cls-15,.cls-16,.cls-7,.cls-8,.cls-9{mix-blend-mode:soft-light;}.cls-7{fill:url(#linear-gradient-2);}.cls-8{fill:url(#linear-gradient-3);}.cls-9{fill:url(#linear-gradient-4);}.cls-10{fill:url(#linear-gradient-5);}.cls-11{fill:url(#linear-gradient-6);}.cls-12{fill:url(#linear-gradient-7);}.cls-13{fill:url(#linear-gradient-8);}.cls-14{fill:url(#linear-gradient-9);}.cls-15{fill:url(#linear-gradient-10);}.cls-16{fill:url(#linear-gradient-11);}.cls-17{opacity:0.3;}</style><linearGradient id="linear-gradient" x1="200" y1="0.5" x2="200" y2="399.5" gradientUnits="userSpaceOnUse"><stop offset="0" stop-color="#f5f5f5" stop-opacity="0.2"/><stop offset="0.35" stop-color="#e7e7e7" stop-opacity="0.19"/><stop offset="0.6" stop-color="#bcbbbb" stop-opacity="0.17"/><stop offset="0.83" stop-color="#737172" stop-opacity="0.14"/><stop offset="1" stop-color="#231f20" stop-opacity="0.1"/></linearGradient><linearGradient id="linear-gradient-2" x1="7885.74" y1="896.11" x2="7895.76" y2="896.11" gradientTransform="translate(1135.37 -7770.71) rotate(90)" gradientUnits="userSpaceOnUse"><stop offset="0" stop-color="#fff"/><stop offset="0.05" stop-color="#e4e4e4"/><stop offset="0.13" stop-color="#b7b6b6"/><stop offset="0.22" stop-color="#8f8d8e"/><stop offset="0.32" stop-color="#6e6b6c"/><stop offset="0.42" stop-color="#524f50"/><stop offset="0.53" stop-color="#3d3a3b"/><stop offset="0.65" stop-color="#2e2b2c"/><stop offset="0.79" stop-color="#262223"/><stop offset="1" stop-color="#231f20"/></linearGradient><linearGradient id="linear-gradient-3" x1="7938.78" y1="1050.4" x2="7949.85" y2="1050.4" xlink:href="#linear-gradient-2"/><linearGradient id="linear-gradient-4" x1="7903.3" y1="797.7" x2="7914.37" y2="797.7" xlink:href="#linear-gradient-2"/><linearGradient id="linear-gradient-5" x1="8078.3" y1="919.34" x2="8103.39" y2="919.34" xlink:href="#linear-gradient-2"/><linearGradient id="linear-gradient-6" x1="8094.79" y1="827.46" x2="8103.72" y2="827.46" xlink:href="#linear-gradient-2"/><linearGradient id="linear-gradient-7" x1="8021.94" y1="1071.19" x2="8039" y2="1071.19" xlink:href="#linear-gradient-2"/><linearGradient id="linear-gradient-8" x1="8006.54" y1="941.66" x2="8018.85" y2="941.66" xlink:href="#linear-gradient-2"/><linearGradient id="linear-gradient-9" x1="7866.67" y1="1084.37" x2="7883.73" y2="1084.37" xlink:href="#linear-gradient-2"/><linearGradient id="linear-gradient-10" x1="8082.44" y1="1038.99" x2="8099.42" y2="1038.99" xlink:href="#linear-gradient-2"/><linearGradient id="linear-gradient-11" x1="7820.9" y1="947.92" x2="7839.88" y2="947.92" xlink:href="#linear-gradient-2"/></defs><title>Moon_1</title><g class="cls-1"><g id="Layer_2" data-name="Layer 2"><g id="Planet"><path class="cls-2" d="M400,200c0,110.45-89.55,200-200,200S0,310.45,0,200C0,92,85.61,4,192.69.13Q196.34,0,200,0A199.78,199.78,0,0,1,400,200Z"/><path class="cls-3" d="M399.5,200c0,110.18-89.32,199.5-199.5,199.5A199.37,199.37,0,0,1,27.29,299.91c-.28-.47-.55-.94-.81-1.4-.79-1.37-1.55-2.76-2.29-4.15a197.8,197.8,0,0,1-16.75-42c-.44-1.6-.86-3.22-1.25-4.84-.05-.2-.09-.39-.14-.58A199.49,199.49,0,0,1,.63,207.29Q.5,203.66.5,200A199.24,199.24,0,0,1,10,138.91q2-6.27,4.42-12.34A199.92,199.92,0,0,1,163.78,3.78,199.77,199.77,0,0,1,384.87,124.87,198.8,198.8,0,0,1,399.5,200Z"/><ellipse class="cls-4" cx="292.8" cy="261.77" rx="50.51" ry="38.65"/><ellipse class="cls-2" cx="292.71" cy="254.51" rx="37.26" ry="48.7" transform="translate(9.45 519.5) rotate(-84.1)"/><ellipse class="cls-5" cx="292.81" cy="255.79" rx="30.79" ry="40.24" transform="translate(8.28 520.75) rotate(-84.1)"/><path class="cls-6" d="M295.7,223.59c22.29,2.37,39,18.13,37.27,35.2l-.09.74c-4.2-12.75-18.38-23.11-36.11-25-22-2.34-41.19,9.2-43.37,25.88a24.66,24.66,0,0,1-1.15-10.22C254,233.13,273.42,221.22,295.7,223.59Z"/><ellipse class="cls-4" cx="133.48" cy="272.67" rx="18.46" ry="24.12" transform="translate(-168.59 302.98) rotate(-69.65)"/><ellipse class="cls-2" cx="131.01" cy="270.22" rx="17.79" ry="23.25" transform="translate(-169.29 268.18) rotate(-63.75)"/><ellipse class="cls-5" cx="132.38" cy="268.27" rx="12.75" ry="15.42" transform="translate(-166.77 268.31) rotate(-63.75)"/><path class="cls-6" d="M141.73,259.24c-6.41-1.42-12.75.9-15.31,6.09s-.54,11.62,4.48,15.84a18.67,18.67,0,0,1-4.17-1.46c-7.64-3.77-11.3-11.95-8.19-18.27s11.84-8.38,19.48-4.61A18.35,18.35,0,0,1,141.73,259.24Z"/><path class="cls-4" d="M39.26,286.64a22.93,22.93,0,0,1-4,9.67A17.73,17.73,0,0,1,29,301.66c-.29.15-.57.29-.86.41-.29-.47-.57-.95-.84-1.43s-.56-1-.83-1.48c-.52-.92-1-1.86-1.53-2.79l-.83-1.56A203,203,0,0,1,7.59,253.16c0-.2-.11-.4-.16-.6-.39-1.45-.77-2.91-1.12-4.38a1.92,1.92,0,0,1-.08-.3c.3-.18.61-.35.92-.5s.59-.1.89-.13C18.1,246,29.52,253,35.67,265.1A34.43,34.43,0,0,1,39.26,286.64Z"/><path class="cls-2" d="M39.26,286.64A20.51,20.51,0,0,1,34.08,295a16.51,16.51,0,0,1-5.54,3.54,14.4,14.4,0,0,1-2.12.65l-.1,0Q25.12,297.14,24,295A197.8,197.8,0,0,1,7.16,252.92c-.44-1.61-.86-3.22-1.26-4.85l.33-.19c.3-.18.61-.35.92-.5a4.71,4.71,0,0,1,.45-.22c.32-.15.64-.29,1-.41,10.93-4.22,24.27,3.95,29.79,18.24C41.29,272.58,41.43,280.37,39.26,286.64Z"/><path class="cls-5" d="M36.3,276.54c.08,8.12-3.62,15.15-10.07,17.64a12.38,12.38,0,0,1-2.19.63A198,198,0,0,1,7.42,253.53c-.08-.28-.16-.55-.23-.83a13.42,13.42,0,0,1,2.53-1.3c9-3.49,20.06,3.27,24.62,15.07a29.12,29.12,0,0,1,2,9.64Z"/><path class="cls-6" d="M36.3,276.54c0,8.1-3.75,15.1-10.18,17.61l-.4.15c5.39-5.43,7-15.3,3.35-24.79-4.05-10.61-13.26-17.16-21.65-16-.08-.28-.16-.55-.23-.83a13.42,13.42,0,0,1,2.53-1.3c9-3.49,20.06,3.27,24.62,15.07a29.12,29.12,0,0,1,2,9.64Z"/><path class="cls-4" d="M385.3,221.33a17.46,17.46,0,0,1,6.52-4.57,13.7,13.7,0,0,1,6.19-.89l.73.09c0,.42,0,.84-.05,1.26s0,.86-.07,1.29c0,.8-.09,1.61-.15,2.41,0,.44-.07.89-.1,1.34a153.89,153.89,0,0,1-6.33,33.4c-.05.15-.09.3-.14.45-.34,1.09-.69,2.18-1.06,3.26a1.55,1.55,0,0,1-.07.23c-.27,0-.53,0-.79-.06l-.63-.27c-7-3.29-11.43-12.42-10.48-22.67A26.2,26.2,0,0,1,385.3,221.33Z"/><path class="cls-2" d="M385.3,221.33a15.62,15.62,0,0,1,6.71-3.24,12.28,12.28,0,0,1,5,0,9.78,9.78,0,0,1,1.63.44l.08,0c-.05,1.2-.12,2.41-.21,3.6A150.05,150.05,0,0,1,392.22,256c-.37,1.21-.75,2.42-1.16,3.63h-.29c-.27,0-.53,0-.79-.06a2.58,2.58,0,0,1-.38,0,7.82,7.82,0,0,1-.8-.13c-8.72-1.73-14-12.38-11.7-23.79A24.26,24.26,0,0,1,385.3,221.33Z"/><path class="cls-5" d="M383.1,229c3.25-5.24,8.48-8.25,13.63-7.23a9.2,9.2,0,0,1,1.65.48,150.14,150.14,0,0,1-6.08,33.23c-.06.21-.12.42-.19.62a10.42,10.42,0,0,1-2.15-.19c-7.22-1.43-11.55-10.23-9.68-19.66a22,22,0,0,1,2.65-7Z"/><path class="cls-6" d="M383.1,229c3.31-5.19,8.54-8.17,13.68-7.17l.32.07c-5.66,1.3-10.69,7-12.21,14.54-1.7,8.46,1.55,16.39,7.41,19-.06.21-.12.42-.19.62a10.42,10.42,0,0,1-2.15-.19c-7.22-1.43-11.55-10.23-9.68-19.66a22,22,0,0,1,2.65-7Z"/><ellipse class="cls-4" cx="113.79" cy="91.87" rx="23.45" ry="17.94" transform="translate(-24.9 45.47) rotate(-20.42)"/><ellipse class="cls-2" cx="112.57" cy="88.73" rx="22.61" ry="17.3" transform="translate(-18.65 31.05) rotate(-14.52)"/><ellipse class="cls-5" cx="112.83" cy="89.26" rx="18.68" ry="14.29" transform="translate(-18.77 31.13) rotate(-14.52)"/><path class="cls-6" d="M108.87,74.79c10.08-2.58,19.89,1.57,21.91,9.27,0,.12.06.23.08.34-3.89-4.87-11.73-7.08-19.76-5-9.93,2.54-16.42,10.68-14.67,18.29a11.53,11.53,0,0,1-2.16-4.26C92.25,85.7,98.79,77.36,108.87,74.79Z"/><ellipse class="cls-4" cx="182.08" cy="187.23" rx="24.01" ry="18.37" transform="translate(-53.88 75.29) rotate(-20.42)"/><ellipse class="cls-2" cx="180.48" cy="184.07" rx="22.61" ry="17.3" transform="translate(-40.38 51.12) rotate(-14.52)"/><path class="cls-5" d="M181.41,197.22c-7.22,1.87-14.27-.3-17.39-4.91a9.72,9.72,0,0,1-1.37-3,10,10,0,0,1,.24-5.69s0-.1,0-.15c1.57-4.57,6.17-8.61,12.27-10.19,7.66-2,15.12.57,17.92,5.78a9.43,9.43,0,0,1,.84,2.14C195.68,187.8,190.06,195,181.41,197.22Z"/><path class="cls-6" d="M193.17,179.24c-3.35-4-9.94-5.33-16.61-3-8.27,2.89-13.55,10.39-11.94,16.87-.21-.26-.41-.52-.6-.79a9.68,9.68,0,0,1-1.28-2.76,10.5,10.5,0,0,1,.15-6s0-.1,0-.15c1.57-4.57,6.17-8.61,12.27-10.19,7.66-2,15.12.57,17.92,5.78A1.94,1.94,0,0,0,193.17,179.24Z"/><ellipse class="cls-4" cx="37.1" cy="175.66" rx="27.97" ry="21.4" transform="translate(-122.81 94.04) rotate(-51.03)"/><ellipse class="cls-2" cx="33.63" cy="173.44" rx="26.33" ry="20.15" transform="translate(-113.02 74.92) rotate(-45.13)"/><path class="cls-5" d="M42.36,186.07c-6.13,6.16-14.48,8.17-20.35,5.39a11.29,11.29,0,0,1-3.16-2.2,11.61,11.61,0,0,1-3.14-5.85,1.16,1.16,0,0,1,0-.18c-1.14-5.51,1.07-12.29,6.25-17.5,6.5-6.53,15.5-8.39,21.39-4.83a11.19,11.19,0,0,1,2.12,1.65C51.07,168.17,49.7,178.69,42.36,186.07Z"/><path class="cls-6" d="M43.49,161.08c-5.71-2-13.14.55-18.45,6.83-6.57,7.8-7.41,18.45-1.95,24-.37-.13-.73-.28-1.08-.44a11.32,11.32,0,0,1-2.92-2,12.25,12.25,0,0,1-3.38-6.05,1.16,1.16,0,0,1,0-.18c-1.14-5.51,1.07-12.29,6.25-17.5,6.5-6.53,15.5-8.39,21.39-4.83C43.37,161,43.43,161,43.49,161.08Z"/><ellipse class="cls-4" cx="281.91" cy="157.86" rx="11.92" ry="15.58" transform="translate(35.62 366.98) rotate(-69.58)"/><ellipse class="cls-2" cx="282.94" cy="155.81" rx="11.22" ry="14.67" transform="translate(61.18 390.66) rotate(-75.48)"/><path class="cls-5" d="M282.34,164.34c4.69,1.21,9.26-.19,11.29-3.19a6.26,6.26,0,0,0,.73-5.64l0-.1c-1-3-4-5.59-8-6.62-5-1.28-9.81.37-11.62,3.75a5.76,5.76,0,0,0-.55,1.39C273.08,158.23,276.73,162.88,282.34,164.34Z"/><path class="cls-6" d="M274.71,152.68c2.17-2.57,6.45-3.47,10.78-2,5.37,1.87,8.79,6.74,7.74,10.95.14-.17.27-.34.4-.52a6.38,6.38,0,0,0,.83-1.79,6.83,6.83,0,0,0-.1-3.85l0-.1c-1-3-4-5.59-8-6.62-5-1.28-9.81.37-11.62,3.75A.74.74,0,0,0,274.71,152.68Z"/><ellipse class="cls-4" cx="162.52" cy="352.93" rx="15.58" ry="11.92" transform="translate(-60.35 34.65) rotate(-10.27)"/><ellipse class="cls-2" cx="162.36" cy="350.64" rx="14.67" ry="11.22" transform="translate(-91.25 59.11) rotate(-16.18)"/><path class="cls-5" d="M166.2,358.28c4.64-1.35,7.86-4.89,8.07-8.5a6,6,0,0,0-.23-2.14,6.53,6.53,0,0,0-2-3.09.46.46,0,0,0-.07-.07c-2.39-2-6.3-2.77-10.23-1.62-4.93,1.43-8.24,5.32-8.08,9.15a6.18,6.18,0,0,0,.24,1.48C155.12,357.75,160.63,359.89,166.2,358.28Z"/><path class="cls-6" d="M153.68,352.15c.56-3.32,3.78-6.27,8.27-7.19,5.57-1.13,11,1.31,12.25,5.46,0-.21.06-.42.07-.64a6,6,0,0,0-.2-2,6.73,6.73,0,0,0-2-3.27.46.46,0,0,0-.07-.07c-2.39-2-6.3-2.77-10.23-1.62-4.93,1.43-8.24,5.32-8.08,9.15C153.65,352.06,153.67,352.1,153.68,352.15Z"/><ellipse class="cls-4" cx="285.13" cy="344.22" rx="22.89" ry="17.52" transform="translate(-132.61 185.22) rotate(-29.53)"/><ellipse class="cls-2" cx="283.8" cy="341.12" rx="21.56" ry="16.49" transform="translate(-145.19 227.67) rotate(-35.43)"/><path class="cls-5" d="M292.83,349.86c5.79-4.12,8.54-10.6,7.08-15.71a9.2,9.2,0,0,0-1.35-2.85,9.49,9.49,0,0,0-4.3-3.31l-.14-.06c-4.3-1.66-10.07-.79-15,2.7C273,335,270.29,342,272.37,347.25a9,9,0,0,0,1.05,1.93C277.2,354.49,285.89,354.79,292.83,349.86Z"/><path class="cls-6" d="M272.49,347.42c-.83-4.88,2.21-10.54,8-14,7.18-4.26,15.89-3.51,19.63,1.64-.06-.31-.12-.62-.21-.93a9.18,9.18,0,0,0-1.22-2.62,10.05,10.05,0,0,0-4.43-3.54l-.14-.06c-4.3-1.66-10.07-.79-15,2.7C273,335,270.29,342,272.37,347.25Z"/><ellipse class="cls-4" cx="88.7" cy="216.11" rx="7.96" ry="10.4" transform="translate(-144.78 223.84) rotate(-69.58)"/><ellipse class="cls-2" cx="89.39" cy="214.74" rx="7.5" ry="9.8" transform="translate(-140.9 247.44) rotate(-75.48)"/><path class="cls-5" d="M89,220.44c3.13.81,6.18-.13,7.53-2.13a4.11,4.11,0,0,0,.6-1.31,4.38,4.38,0,0,0-.1-2.46l0-.07a7.45,7.45,0,0,0-5.31-4.42c-3.32-.85-6.56.25-7.77,2.51a4.17,4.17,0,0,0-.36.93C82.8,216.36,85.24,219.47,89,220.44Z"/><path class="cls-6" d="M83.89,212.65c1.45-1.72,4.31-2.31,7.2-1.31,3.58,1.25,5.87,4.5,5.17,7.31a2.78,2.78,0,0,0,.26-.34,4.19,4.19,0,0,0,.56-1.19,4.63,4.63,0,0,0-.06-2.58l0-.07a7.45,7.45,0,0,0-5.31-4.42c-3.32-.85-6.56.25-7.77,2.51A.29.29,0,0,1,83.89,212.65Z"/><ellipse class="cls-4" cx="197.23" cy="25.29" rx="10.4" ry="7.96" transform="translate(-1.46 33.25) rotate(-9.6)"/><ellipse class="cls-2" cx="197.14" cy="23.76" rx="9.8" ry="7.5" transform="translate(0.82 53.55) rotate(-15.5)"/><path class="cls-5" d="M199.64,28.9c3.12-.87,5.29-3.21,5.46-5.62a3.82,3.82,0,0,0-.14-1.42,4.26,4.26,0,0,0-1.32-2.09l0,0a7.44,7.44,0,0,0-6.81-1.17c-3.31.92-5.55,3.49-5.47,6.05a3.71,3.71,0,0,0,.15,1C192.25,28.46,195.91,29.93,199.64,28.9Z"/><path class="cls-6" d="M191.33,24.7c.4-2.21,2.58-4.15,5.58-4.73,3.73-.71,7.34,1,8.14,3.74,0-.14,0-.28,0-.43A4.18,4.18,0,0,0,205,22a4.62,4.62,0,0,0-1.35-2.2l0,0a7.44,7.44,0,0,0-6.81-1.17c-3.31.92-5.55,3.49-5.47,6.05C191.32,24.64,191.32,24.67,191.33,24.7Z"/><ellipse class="cls-4" cx="282.17" cy="74.25" rx="14.36" ry="18.77" transform="translate(108.72 308.87) rotate(-68.27)"/><path class="cls-6" d="M289.18,62.09c7.21,3.78,10.71,11.3,7.82,16.82l-.13.23c.31-4.85-3.08-10.22-8.81-13.22-7.1-3.72-15.15-2.4-18.14,2.92a8.77,8.77,0,0,1,1-3.59C273.8,59.74,282,58.32,289.18,62.09Z"/><circle class="cls-7" cx="239.26" cy="120.15" r="5.11"/><circle class="cls-8" cx="84.98" cy="173.72" r="5.65"/><circle class="cls-9" cx="337.67" cy="138.24" r="5.65"/><circle class="cls-10" cx="216.03" cy="320.39" r="12.8"/><circle class="cls-11" cx="307.91" cy="328.64" r="4.55"/><circle class="cls-12" cx="64.19" cy="259.94" r="8.71"/><circle class="cls-13" cx="193.72" cy="242.11" r="6.28"/><circle class="cls-14" cx="51" cy="104.67" r="8.71"/><circle class="cls-15" cx="96.38" cy="320.39" r="8.66"/><circle class="cls-16" cx="187.46" cy="59.88" r="9.68"/><path class="cls-17" d="M400,200A200,200,0,0,1,.13,207.31C0,204.88,0,202.45,0,200a200,200,0,0,1,7.08-52.93A200.07,200.07,0,0,0,199.1,291c92.13,0,169.72-62.3,192.92-147.07A200.18,200.18,0,0,1,400,200Z"/></g></g></g></svg>