<svg xmlns="http://www.w3.org/2000/svg" xmlns:xlink="http://www.w3.org/1999/xlink" viewBox="0 0 400 415.43"><defs><style>.cls-1{isolation:isolate;}.cls-2{fill:#f6f6f6;}.cls-17,.cls-3{fill:#c1c0c5;}.cls-4{fill:url(#linear-gradient);}.cls-5{fill:#e4e4e4;}.cls-6{fill:#e3e3e3;}.cls-10,.cls-11,.cls-12,.cls-13,.cls-14,.cls-15,.cls-16,.cls-7,.cls-8,.cls-9{mix-blend-mode:soft-light;}.cls-7{fill:url(#linear-gradient-2);}.cls-8{fill:url(#linear-gradient-3);}.cls-9{fill:url(#linear-gradient-4);}.cls-10{fill:url(#linear-gradient-5);}.cls-11{fill:url(#linear-gradient-6);}.cls-12{fill:url(#linear-gradient-7);}.cls-13{fill:url(#linear-gradient-8);}.cls-14{fill:url(#linear-gradient-9);}.cls-15{fill:url(#linear-gradient-10);}.cls-16{fill:url(#linear-gradient-11);}.cls-17{opacity:0.3;}</style><linearGradient id="linear-gradient" x1="200" y1="15.93" x2="200" y2="414.93" gradientUnits="userSpaceOnUse"><stop offset="0" stop-color="#f5f5f5" stop-opacity="0.2"/><stop offset="0.35" stop-color="#e7e7e7" stop-opacity="0.19"/><stop offset="0.6" stop-color="#bcbbbb" stop-opacity="0.17"/><stop offset="0.83" stop-color="#737172" stop-opacity="0.14"/><stop offset="1" stop-color="#231f20" stop-opacity="0.1"/></linearGradient><linearGradient id="linear-gradient-2" x1="5867.99" y1="-1105.56" x2="5878.01" y2="-1105.56" gradientTransform="translate(-866.3 -5737.53) rotate(90)" gradientUnits="userSpaceOnUse"><stop offset="0" stop-color="#fff"/><stop offset="0.05" stop-color="#e4e4e4"/><stop offset="0.13" stop-color="#b7b6b6"/><stop offset="0.22" stop-color="#8f8d8e"/><stop offset="0.32" stop-color="#6e6b6c"/><stop offset="0.42" stop-color="#524f50"/><stop offset="0.53" stop-color="#3d3a3b"/><stop offset="0.65" stop-color="#2e2b2c"/><stop offset="0.79" stop-color="#262223"/><stop offset="1" stop-color="#231f20"/></linearGradient><linearGradient id="linear-gradient-3" x1="5921.03" y1="-951.27" x2="5932.1" y2="-951.27" xlink:href="#linear-gradient-2"/><linearGradient id="linear-gradient-4" x1="5885.55" y1="-1203.97" x2="5896.62" y2="-1203.97" xlink:href="#linear-gradient-2"/><linearGradient id="linear-gradient-5" x1="6060.55" y1="-1082.33" x2="6085.64" y2="-1082.33" xlink:href="#linear-gradient-2"/><linearGradient id="linear-gradient-6" x1="6077.04" y1="-1174.21" x2="6085.97" y2="-1174.21" xlink:href="#linear-gradient-2"/><linearGradient id="linear-gradient-7" x1="6004.19" y1="-930.49" x2="6021.25" y2="-930.49" xlink:href="#linear-gradient-2"/><linearGradient id="linear-gradient-8" x1="5988.79" y1="-1060.02" x2="6001.1" y2="-1060.02" xlink:href="#linear-gradient-2"/><linearGradient id="linear-gradient-9" x1="5848.92" y1="-917.3" x2="5865.98" y2="-917.3" xlink:href="#linear-gradient-2"/><linearGradient id="linear-gradient-10" x1="6064.69" y1="-962.68" x2="6081.67" y2="-962.68" xlink:href="#linear-gradient-2"/><linearGradient id="linear-gradient-11" x1="5803.15" y1="-1053.76" x2="5822.13" y2="-1053.76" xlink:href="#linear-gradient-2"/></defs><title>moon</title><g class="cls-1"><g id="Layer_2" data-name="Layer 2"><g id="Layer_1-2" data-name="Layer 1"><path class="cls-2" d="M400,215.43c0,110.45-89.55,200-200,200S0,325.88,0,215.43c0-108,85.61-196,192.69-199.87q3.65-.13,7.31-.13a199.78,199.78,0,0,1,200,200Z"/><path class="cls-3" d="M223.55,16.8a202.8,202.8,0,0,0-59.86,1.91V16.93A16.94,16.94,0,0,1,180.62,0h26A16.91,16.91,0,0,1,223.55,16.8Z"/><path class="cls-3" d="M44.14,90.09A199.25,199.25,0,0,0,14,141.81l-4.69-2.7A16.94,16.94,0,0,1,3.1,116l13-22.52a16.94,16.94,0,0,1,23.14-6.2Z"/><path class="cls-3" d="M389.48,137.39l-4.14,2.72a199.72,199.72,0,0,0-30.67-51.48l1.87-1.24A16.94,16.94,0,0,1,380,92.22l14.31,21.71A16.94,16.94,0,0,1,389.48,137.39Z"/><path class="cls-3" d="M352.07,366.93l-19.51,17.19a16.93,16.93,0,0,1-23.47-1,200.94,200.94,0,0,0,44.7-39.79A16.92,16.92,0,0,1,352.07,366.93Z"/><path class="cls-3" d="M114,396l-.79,1.23a16.93,16.93,0,0,1-23.4,5.07L67.89,388.24a16.93,16.93,0,0,1-5.07-23.4l1.56-2.42A200.33,200.33,0,0,0,114,396Z"/><path class="cls-4" d="M399.5,215.43c0,110.18-89.32,199.5-199.5,199.5a199.38,199.38,0,0,1-172.71-99.6c-.28-.46-.55-.93-.81-1.4q-1.18-2.06-2.29-4.15a197.51,197.51,0,0,1-16.75-42q-.66-2.42-1.25-4.84c-.05-.2-.09-.39-.14-.59A199.39,199.39,0,0,1,.63,222.72Q.5,219.09.5,215.43A199.26,199.26,0,0,1,10,154.33c1.34-4.17,2.82-8.29,4.42-12.33A199.5,199.5,0,0,1,399.5,215.43Z"/><ellipse class="cls-5" cx="292.8" cy="277.2" rx="50.51" ry="38.65"/><ellipse class="cls-2" cx="292.71" cy="269.94" rx="37.26" ry="48.7" transform="translate(-5.9 533.34) rotate(-84.1)"/><ellipse class="cls-6" cx="292.81" cy="271.21" rx="30.79" ry="40.24" transform="translate(-7.07 534.59) rotate(-84.1)"/><path class="cls-3" d="M295.7,239c22.29,2.37,39,18.13,37.27,35.19l-.09.74c-4.2-12.75-18.38-23.11-36.11-25-22-2.34-41.19,9.21-43.37,25.89a24.66,24.66,0,0,1-1.15-10.22C254,248.56,273.42,236.64,295.7,239Z"/><ellipse class="cls-5" cx="133.48" cy="288.1" rx="18.46" ry="24.12" transform="translate(-183.05 313.04) rotate(-69.65)"/><ellipse class="cls-2" cx="131.01" cy="285.65" rx="17.79" ry="23.25" transform="translate(-183.12 276.78) rotate(-63.75)"/><ellipse class="cls-6" cx="132.38" cy="283.69" rx="12.75" ry="15.42" transform="translate(-180.61 276.92) rotate(-63.75)"/><path class="cls-3" d="M141.73,274.67c-6.41-1.42-12.75.9-15.31,6.09s-.54,11.62,4.48,15.84a18.22,18.22,0,0,1-4.17-1.47c-7.64-3.77-11.3-11.94-8.19-18.26s11.84-8.39,19.48-4.62A18.83,18.83,0,0,1,141.73,274.67Z"/><path class="cls-5" d="M39.26,302.07a22.93,22.93,0,0,1-4,9.67A17.83,17.83,0,0,1,29,317.09c-.29.15-.57.28-.86.41-.29-.47-.57-1-.84-1.44s-.56-1-.83-1.47q-.78-1.39-1.53-2.79l-.83-1.57A203.12,203.12,0,0,1,7.59,268.59c0-.2-.11-.4-.16-.61-.39-1.45-.77-2.9-1.12-4.37a2,2,0,0,1-.08-.31c.3-.17.61-.34.92-.49s.59-.1.89-.14c10.06-1.23,21.48,5.78,27.63,17.86A34.43,34.43,0,0,1,39.26,302.07Z"/><path class="cls-2" d="M39.26,302.07a20.58,20.58,0,0,1-5.18,8.33,16.49,16.49,0,0,1-5.54,3.53,15.76,15.76,0,0,1-2.12.66l-.1,0c-.8-1.37-1.57-2.76-2.31-4.15A198,198,0,0,1,7.16,268.35c-.44-1.61-.86-3.22-1.26-4.85l.33-.2c.3-.17.61-.34.92-.49a4.71,4.71,0,0,1,.45-.22c.32-.15.64-.29,1-.42,10.93-4.22,24.27,3.95,29.79,18.24C41.29,288,41.43,295.8,39.26,302.07Z"/><path class="cls-6" d="M36.3,292c.08,8.12-3.62,15.15-10.07,17.64a13.29,13.29,0,0,1-2.19.63A198,198,0,0,1,7.42,269c-.08-.27-.16-.54-.23-.82a13.42,13.42,0,0,1,2.53-1.3c9-3.49,20.06,3.26,24.62,15.07a29.07,29.07,0,0,1,2,9.63Z"/><path class="cls-3" d="M36.3,292c0,8.1-3.75,15.1-10.18,17.61l-.4.14c5.39-5.42,7-15.3,3.35-24.79C25,274.32,15.81,267.78,7.42,269c-.08-.27-.16-.54-.23-.82a13.42,13.42,0,0,1,2.53-1.3c9-3.49,20.06,3.26,24.62,15.07a29.07,29.07,0,0,1,2,9.63Z"/><path class="cls-5" d="M385.3,236.75a17.55,17.55,0,0,1,6.52-4.56,13.43,13.43,0,0,1,6.19-.89c.25,0,.49,0,.73.09,0,.42,0,.84-.05,1.26s0,.86-.07,1.28c0,.81-.09,1.61-.15,2.41,0,.45-.07.9-.1,1.34a153.78,153.78,0,0,1-6.33,33.4c-.05.15-.09.3-.14.45-.34,1.09-.69,2.18-1.06,3.27a1.42,1.42,0,0,1-.07.22,6.84,6.84,0,0,1-.79,0c-.21-.08-.42-.18-.63-.28-7-3.28-11.43-12.41-10.48-22.66A26.25,26.25,0,0,1,385.3,236.75Z"/><path class="cls-2" d="M385.3,236.75a15.85,15.85,0,0,1,6.71-3.24,12.65,12.65,0,0,1,5,0,12.19,12.19,0,0,1,1.63.44l.08,0q-.07,1.8-.21,3.6a150.05,150.05,0,0,1-6.27,33.85c-.37,1.21-.75,2.42-1.16,3.62h-.29a6.84,6.84,0,0,1-.79,0l-.38,0-.8-.13c-8.72-1.73-14-12.38-11.7-23.79A24.28,24.28,0,0,1,385.3,236.75Z"/><path class="cls-6" d="M383.1,244.44c3.25-5.24,8.48-8.25,13.63-7.23a9.2,9.2,0,0,1,1.65.48,150.24,150.24,0,0,1-6.08,33.23c-.06.21-.12.41-.19.62a10.42,10.42,0,0,1-2.15-.19c-7.22-1.43-11.55-10.24-9.68-19.66a22,22,0,0,1,2.65-7Z"/><path class="cls-3" d="M383.1,244.44c3.31-5.19,8.54-8.17,13.68-7.17l.32.07c-5.66,1.29-10.69,7-12.21,14.54-1.7,8.45,1.55,16.39,7.41,19-.06.21-.12.41-.19.62a10.42,10.42,0,0,1-2.15-.19c-7.22-1.43-11.55-10.24-9.68-19.66a22,22,0,0,1,2.65-7Z"/><ellipse class="cls-5" cx="113.79" cy="107.29" rx="23.45" ry="17.94" transform="translate(-30.28 46.44) rotate(-20.42)"/><ellipse class="cls-2" cx="112.57" cy="104.15" rx="22.61" ry="17.3" transform="translate(-22.51 31.55) rotate(-14.52)"/><ellipse class="cls-6" cx="112.83" cy="104.69" rx="18.68" ry="14.29" transform="translate(-22.64 31.63) rotate(-14.52)"/><path class="cls-3" d="M108.87,90.21c10.08-2.57,19.89,1.58,21.91,9.28a3.38,3.38,0,0,1,.08.34c-3.89-4.87-11.73-7.08-19.76-5-9.93,2.54-16.42,10.67-14.67,18.28a11.53,11.53,0,0,1-2.16-4.26C92.25,101.12,98.79,92.79,108.87,90.21Z"/><ellipse class="cls-5" cx="182.08" cy="202.66" rx="24.01" ry="18.37" transform="translate(-59.26 76.26) rotate(-20.42)"/><ellipse class="cls-2" cx="180.48" cy="199.5" rx="22.61" ry="17.3" transform="translate(-44.25 51.62) rotate(-14.52)"/><path class="cls-6" d="M181.41,212.65c-7.22,1.86-14.27-.3-17.39-4.92a9.57,9.57,0,0,1-1.37-3,9.94,9.94,0,0,1,.24-5.69c0-.05,0-.1,0-.15,1.57-4.57,6.17-8.62,12.27-10.2,7.66-2,15.12.58,17.92,5.78a9.33,9.33,0,0,1,.84,2.15C195.68,203.23,190.06,210.4,181.41,212.65Z"/><path class="cls-3" d="M193.17,194.67c-3.35-4-9.94-5.33-16.61-3-8.27,2.88-13.55,10.38-11.94,16.86a9.63,9.63,0,0,1-.6-.79,9.75,9.75,0,0,1-1.28-2.75,10.5,10.5,0,0,1,.15-5.95c0-.05,0-.1,0-.15,1.57-4.57,6.17-8.62,12.27-10.2,7.66-2,15.12.58,17.92,5.78A1.6,1.6,0,0,0,193.17,194.67Z"/><ellipse class="cls-5" cx="37.1" cy="191.09" rx="27.97" ry="21.4" transform="translate(-134.8 99.76) rotate(-51.03)"/><ellipse class="cls-2" cx="33.63" cy="188.87" rx="26.33" ry="20.15" transform="translate(-123.95 79.46) rotate(-45.13)"/><path class="cls-6" d="M42.36,201.5c-6.13,6.15-14.48,8.16-20.35,5.39a11.12,11.12,0,0,1-3.16-2.21,11.58,11.58,0,0,1-3.14-5.84,1.16,1.16,0,0,1,0-.18c-1.14-5.51,1.07-12.3,6.25-17.5,6.5-6.53,15.5-8.4,21.39-4.83A10.43,10.43,0,0,1,45.43,178C51.07,183.59,49.7,194.12,42.36,201.5Z"/><path class="cls-3" d="M43.49,176.5c-5.71-2-13.14.55-18.45,6.84-6.57,7.79-7.41,18.44-1.95,24-.37-.13-.73-.27-1.08-.43a11.36,11.36,0,0,1-2.92-2,12.22,12.22,0,0,1-3.38-6,1.16,1.16,0,0,1,0-.18c-1.14-5.51,1.07-12.3,6.25-17.5,6.5-6.53,15.5-8.4,21.39-4.83Z"/><ellipse class="cls-5" cx="281.91" cy="173.28" rx="11.92" ry="15.58" transform="translate(21.16 377.03) rotate(-69.58)"/><ellipse class="cls-2" cx="282.94" cy="171.24" rx="11.22" ry="14.67" transform="translate(46.24 402.22) rotate(-75.48)"/><path class="cls-6" d="M282.34,179.77c4.69,1.21,9.26-.2,11.29-3.19a6.29,6.29,0,0,0,.73-5.65l0-.1c-1-3-4-5.59-8-6.61-5-1.29-9.81.37-11.62,3.75a5.6,5.6,0,0,0-.55,1.39C273.08,173.65,276.73,178.31,282.34,179.77Z"/><path class="cls-3" d="M274.71,168.1c2.17-2.57,6.45-3.46,10.78-1.95,5.37,1.87,8.79,6.74,7.74,10.94.14-.16.27-.33.4-.51a6.51,6.51,0,0,0,.83-1.79,6.87,6.87,0,0,0-.1-3.86l0-.1c-1-3-4-5.59-8-6.61-5-1.29-9.81.37-11.62,3.75A.65.65,0,0,0,274.71,168.1Z"/><ellipse class="cls-5" cx="162.52" cy="368.36" rx="15.58" ry="11.92" transform="translate(-63.1 34.9) rotate(-10.27)"/><ellipse class="cls-2" cx="162.36" cy="366.07" rx="14.67" ry="11.22" transform="translate(-95.55 59.72) rotate(-16.18)"/><path class="cls-6" d="M166.2,373.71c4.64-1.35,7.86-4.89,8.07-8.5a6,6,0,0,0-.23-2.14,6.48,6.48,0,0,0-2-3.09.46.46,0,0,0-.07-.07c-2.39-2-6.3-2.77-10.23-1.63-4.93,1.43-8.24,5.33-8.08,9.16a6.26,6.26,0,0,0,.24,1.48C155.12,373.18,160.63,375.32,166.2,373.71Z"/><path class="cls-3" d="M153.68,367.57c.56-3.31,3.78-6.27,8.27-7.18,5.57-1.13,11,1.31,12.25,5.46,0-.22.06-.43.07-.64a6,6,0,0,0-.2-2,6.7,6.7,0,0,0-2-3.26.46.46,0,0,0-.07-.07c-2.39-2-6.3-2.77-10.23-1.63-4.93,1.43-8.24,5.33-8.08,9.16Z"/><ellipse class="cls-5" cx="285.13" cy="359.64" rx="22.89" ry="17.52" transform="translate(-140.21 187.23) rotate(-29.53)"/><ellipse class="cls-2" cx="283.8" cy="356.54" rx="21.56" ry="16.49" transform="translate(-154.13 230.52) rotate(-35.43)"/><path class="cls-6" d="M292.83,365.29c5.79-4.13,8.54-10.6,7.08-15.71a9,9,0,0,0-1.35-2.85,9.58,9.58,0,0,0-4.3-3.32l-.14-.06c-4.3-1.65-10.07-.78-15,2.7-6.15,4.38-8.86,11.39-6.78,16.62a9.35,9.35,0,0,0,1.05,1.94C277.2,369.92,285.89,370.22,292.83,365.29Z"/><path class="cls-3" d="M272.49,362.84c-.83-4.87,2.21-10.53,8-14,7.18-4.27,15.89-3.52,19.63,1.64-.06-.32-.12-.62-.21-.93a9.37,9.37,0,0,0-1.22-2.63,10.12,10.12,0,0,0-4.43-3.54l-.14-.06c-4.3-1.65-10.07-.78-15,2.7-6.15,4.38-8.86,11.39-6.78,16.62Z"/><ellipse class="cls-5" cx="88.7" cy="231.54" rx="7.96" ry="10.4" transform="translate(-159.23 233.88) rotate(-69.58)"/><ellipse class="cls-2" cx="89.39" cy="230.17" rx="7.5" ry="9.8" transform="matrix(0.25, -0.97, 0.97, 0.25, -155.84, 259)"/><path class="cls-6" d="M89,235.87c3.13.8,6.18-.13,7.53-2.13a4.21,4.21,0,0,0,.6-1.31A4.38,4.38,0,0,0,97,230l0-.07a7.45,7.45,0,0,0-5.31-4.42c-3.32-.86-6.56.25-7.77,2.51a4.17,4.17,0,0,0-.36.93C82.8,231.78,85.24,234.89,89,235.87Z"/><path class="cls-3" d="M83.89,228.08c1.45-1.72,4.31-2.32,7.2-1.31,3.58,1.25,5.87,4.5,5.17,7.31a2.78,2.78,0,0,0,.26-.34,4.13,4.13,0,0,0,.56-1.2A4.59,4.59,0,0,0,97,230l0-.07a7.45,7.45,0,0,0-5.31-4.42c-3.32-.86-6.56.25-7.77,2.51A.37.37,0,0,1,83.89,228.08Z"/><ellipse class="cls-5" cx="197.23" cy="40.72" rx="10.4" ry="7.96" transform="translate(-4.03 33.46) rotate(-9.6)"/><ellipse class="cls-2" cx="197.14" cy="39.19" rx="9.8" ry="7.5" transform="translate(-3.3 54.11) rotate(-15.5)"/><path class="cls-6" d="M199.64,44.32c3.12-.86,5.29-3.2,5.46-5.61a3.85,3.85,0,0,0-.14-1.43,4.23,4.23,0,0,0-1.32-2.08s0,0,0-.05A7.47,7.47,0,0,0,196.78,34c-3.31.91-5.55,3.49-5.47,6a3.77,3.77,0,0,0,.15,1C192.25,43.88,195.91,45.36,199.64,44.32Z"/><path class="cls-3" d="M191.33,40.13c.4-2.21,2.58-4.16,5.58-4.73,3.73-.71,7.34,1,8.14,3.74,0-.14,0-.29,0-.43A4.18,4.18,0,0,0,205,37.4a4.58,4.58,0,0,0-1.35-2.2s0,0,0-.05A7.47,7.47,0,0,0,196.78,34c-3.31.91-5.55,3.49-5.47,6C191.32,40.07,191.32,40.1,191.33,40.13Z"/><ellipse class="cls-5" cx="282.17" cy="89.67" rx="14.36" ry="18.77" transform="translate(94.39 318.59) rotate(-68.27)"/><path class="cls-3" d="M289.18,77.52c7.21,3.77,10.71,11.3,7.82,16.81,0,.08-.08.16-.13.24.31-4.85-3.08-10.23-8.81-13.23-7.1-3.72-15.15-2.4-18.14,2.92a8.81,8.81,0,0,1,1-3.59C273.8,75.16,282,73.75,289.18,77.52Z"/><circle class="cls-7" cx="239.26" cy="135.57" r="5.11"/><circle class="cls-8" cx="84.98" cy="189.14" r="5.65"/><circle class="cls-9" cx="337.67" cy="153.67" r="5.65"/><circle class="cls-10" cx="216.03" cy="335.82" r="12.8"/><circle class="cls-11" cx="307.91" cy="344.07" r="4.55"/><circle class="cls-12" cx="64.19" cy="275.37" r="8.71"/><circle class="cls-13" cx="193.72" cy="257.54" r="6.28"/><circle class="cls-14" cx="51" cy="120.1" r="8.71"/><circle class="cls-15" cx="96.38" cy="335.82" r="8.66"/><circle class="cls-16" cx="187.46" cy="75.31" r="9.68"/><path class="cls-17" d="M400,215.43A200,200,0,0,1,.13,222.74Q0,219.1,0,215.43A199.92,199.92,0,0,1,7.08,162.5a200.07,200.07,0,0,0,192,143.89c92.13,0,169.72-62.31,192.92-147.08A200.3,200.3,0,0,1,400,215.43Z"/></g></g></g></svg>