<svg xmlns="http://www.w3.org/2000/svg" xmlns:xlink="http://www.w3.org/1999/xlink" viewBox="0 0 731.62 626.62"><defs><style>.cls-1{fill:none;}.cls-2{isolation:isolate;}.cls-3,.cls-32,.cls-33{opacity:0.1;}.cls-4{clip-path:url(#clip-path);}.cls-5{fill:url(#linear-gradient);}.cls-6{fill:url(#linear-gradient-2);}.cls-7{fill:url(#linear-gradient-3);}.cls-8{fill:url(#linear-gradient-4);}.cls-9{fill:url(#linear-gradient-5);}.cls-10{opacity:0.4;}.cls-11{clip-path:url(#clip-path-2);}.cls-12{fill:url(#linear-gradient-6);}.cls-13{fill:url(#linear-gradient-7);}.cls-14{fill:url(#linear-gradient-8);}.cls-15{fill:url(#linear-gradient-9);}.cls-16{fill:url(#linear-gradient-10);}.cls-17{clip-path:url(#clip-path-3);}.cls-18{fill:url(#linear-gradient-11);}.cls-19{fill:url(#linear-gradient-12);}.cls-20{fill:url(#linear-gradient-13);}.cls-21{fill:url(#linear-gradient-14);}.cls-22{fill:url(#linear-gradient-15);}.cls-23{fill:url(#linear-gradient-16);}.cls-24{fill:url(#linear-gradient-17);}.cls-25{fill:url(#linear-gradient-18);}.cls-26{fill:url(#linear-gradient-19);}.cls-27{clip-path:url(#clip-path-4);}.cls-28{fill:url(#linear-gradient-20);}.cls-29{fill:url(#linear-gradient-21);}.cls-30{fill:url(#linear-gradient-22);}.cls-31{fill:url(#linear-gradient-23);}.cls-32{fill:url(#linear-gradient-24);}.cls-33{fill:url(#linear-gradient-25);}.cls-34{opacity:0.6;}.cls-35,.cls-36,.cls-37,.cls-38,.cls-39,.cls-40,.cls-41,.cls-42,.cls-43,.cls-44,.cls-45,.cls-46,.cls-47,.cls-48,.cls-49,.cls-50,.cls-51,.cls-52,.cls-53,.cls-54,.cls-55,.cls-56,.cls-57,.cls-58,.cls-59,.cls-60{mix-blend-mode:soft-light;}.cls-35{fill:url(#linear-gradient-26);}.cls-36{fill:url(#linear-gradient-27);}.cls-37{fill:url(#linear-gradient-28);}.cls-38{fill:url(#linear-gradient-29);}.cls-39{fill:url(#linear-gradient-30);}.cls-40{fill:url(#linear-gradient-31);}.cls-41{fill:url(#linear-gradient-32);}.cls-42{fill:url(#linear-gradient-33);}.cls-43{fill:url(#linear-gradient-34);}.cls-44{fill:url(#linear-gradient-35);}.cls-45{fill:url(#linear-gradient-36);}.cls-46{fill:url(#linear-gradient-37);}.cls-47{fill:url(#linear-gradient-38);}.cls-48{fill:url(#linear-gradient-39);}.cls-49{fill:url(#linear-gradient-40);}.cls-50{fill:url(#linear-gradient-41);}.cls-51{fill:url(#linear-gradient-42);}.cls-52{fill:url(#linear-gradient-43);}.cls-53{fill:url(#linear-gradient-44);}.cls-54{fill:url(#linear-gradient-45);}.cls-55{fill:url(#linear-gradient-46);}.cls-56{fill:url(#linear-gradient-47);}.cls-57{fill:url(#linear-gradient-48);}.cls-58{fill:url(#linear-gradient-49);}.cls-59{fill:url(#linear-gradient-50);}.cls-60{fill:#1d1259;opacity:0.2;}.cls-61{fill:url(#linear-gradient-51);}</style><clipPath id="clip-path" transform="translate(0 -0.89)"><circle class="cls-1" cx="240.83" cy="191.85" r="40.21"/></clipPath><linearGradient id="linear-gradient" x1="364.07" y1="911.66" x2="251.76" y2="1023.97" gradientTransform="translate(263.89 -853.79) rotate(19.53)" gradientUnits="userSpaceOnUse"><stop offset="0" stop-color="#4818f6"/><stop offset="0.07" stop-color="#482af6"/><stop offset="0.21" stop-color="#4845f6"/><stop offset="0.36" stop-color="#485af6"/><stop offset="0.52" stop-color="#4869f6"/><stop offset="0.71" stop-color="#4872f6"/><stop offset="1" stop-color="#4875f6"/></linearGradient><linearGradient id="linear-gradient-2" x1="328.64" y1="946.22" x2="328.64" y2="1038.13" gradientTransform="translate(263.89 -853.79) rotate(19.53)" gradientUnits="userSpaceOnUse"><stop offset="0" stop-color="#4818f6"/><stop offset="0.18" stop-color="#4837f6"/><stop offset="0.38" stop-color="#4852f6"/><stop offset="0.58" stop-color="#4866f6"/><stop offset="0.79" stop-color="#4871f6"/><stop offset="1" stop-color="#4875f6"/></linearGradient><linearGradient id="linear-gradient-3" x1="337.33" y1="957.56" x2="329.16" y2="1056.08" gradientTransform="translate(263.89 -853.79) rotate(19.53)" gradientUnits="userSpaceOnUse"><stop offset="0" stop-color="#4818f6"/><stop offset="0.07" stop-color="#4822f6"/><stop offset="0.34" stop-color="#4846f6"/><stop offset="0.59" stop-color="#4860f6"/><stop offset="0.82" stop-color="#4870f6"/><stop offset="1" stop-color="#4875f6"/></linearGradient><linearGradient id="linear-gradient-4" x1="347.53" y1="974.86" x2="339.36" y2="1073.39" xlink:href="#linear-gradient-3"/><linearGradient id="linear-gradient-5" x1="355.59" y1="990.1" x2="347.42" y2="1088.62" xlink:href="#linear-gradient-3"/><clipPath id="clip-path-2" transform="translate(0 -0.89)"><circle class="cls-1" cx="240.46" cy="192.89" r="32.47"/></clipPath><linearGradient id="linear-gradient-6" x1="357.1" y1="928.45" x2="266.4" y2="1019.15" xlink:href="#linear-gradient"/><linearGradient id="linear-gradient-7" x1="328.49" y1="956.36" x2="328.49" y2="1030.58" xlink:href="#linear-gradient-2"/><linearGradient id="linear-gradient-8" x1="335.51" y1="965.52" x2="328.91" y2="1045.09" xlink:href="#linear-gradient-3"/><linearGradient id="linear-gradient-9" x1="343.74" y1="979.49" x2="337.15" y2="1059.06" xlink:href="#linear-gradient-3"/><linearGradient id="linear-gradient-10" x1="350.25" y1="991.8" x2="343.65" y2="1071.36" xlink:href="#linear-gradient-3"/><clipPath id="clip-path-3" transform="translate(0 -0.89)"><circle class="cls-1" cx="240.63" cy="192.42" r="24.91"/></clipPath><linearGradient id="linear-gradient-11" x1="350.29" y1="943.28" x2="280.71" y2="1012.86" xlink:href="#linear-gradient"/><linearGradient id="linear-gradient-12" x1="328.34" y1="964.69" x2="328.34" y2="1021.63" xlink:href="#linear-gradient-2"/><linearGradient id="linear-gradient-13" x1="333.72" y1="971.72" x2="328.66" y2="1032.76" xlink:href="#linear-gradient-3"/><linearGradient id="linear-gradient-14" x1="340.04" y1="982.44" x2="334.98" y2="1043.48" xlink:href="#linear-gradient-3"/><linearGradient id="linear-gradient-15" x1="345.03" y1="991.88" x2="339.97" y2="1052.91" xlink:href="#linear-gradient-3"/><linearGradient id="linear-gradient-16" x1="357.01" y1="-194.83" x2="322.18" y2="225.19" gradientTransform="translate(-19.5 223.67) rotate(-4.74)" gradientUnits="userSpaceOnUse"><stop offset="0" stop-color="#4875f6" stop-opacity="0.6"/><stop offset="0.04" stop-color="#405ede" stop-opacity="0.48"/><stop offset="0.1" stop-color="#3845c4" stop-opacity="0.35"/><stop offset="0.17" stop-color="#312fad" stop-opacity="0.24"/><stop offset="0.24" stop-color="#2b1e9b" stop-opacity="0.15"/><stop offset="0.33" stop-color="#26108d" stop-opacity="0.08"/><stop offset="0.43" stop-color="#230783" stop-opacity="0.04"/><stop offset="0.58" stop-color="#21017e" stop-opacity="0.01"/><stop offset="1" stop-color="#21007c" stop-opacity="0"/></linearGradient><linearGradient id="linear-gradient-17" x1="425.03" y1="46.6" x2="425.03" y2="123.43" gradientUnits="userSpaceOnUse"><stop offset="0" stop-color="#4875f6" stop-opacity="0.6"/><stop offset="0.3" stop-color="#3a4bca" stop-opacity="0.38"/><stop offset="0.62" stop-color="#2d23a0" stop-opacity="0.18"/><stop offset="0.86" stop-color="#240986" stop-opacity="0.05"/><stop offset="1" stop-color="#21007c" stop-opacity="0"/></linearGradient><linearGradient id="linear-gradient-18" x1="304.35" y1="21.55" x2="296.45" y2="56.55" gradientUnits="userSpaceOnUse"><stop offset="0" stop-color="#21007c" stop-opacity="0"/><stop offset="0.49" stop-color="#353bb9" stop-opacity="0.3"/><stop offset="1" stop-color="#4875f6" stop-opacity="0.6"/></linearGradient><linearGradient id="linear-gradient-19" x1="191.44" y1="44.69" x2="191.44" y2="118.62" gradientUnits="userSpaceOnUse"><stop offset="0" stop-color="#21007c" stop-opacity="0"/><stop offset="0.26" stop-color="#2a1b98" stop-opacity="0.14"/><stop offset="0.82" stop-color="#405ede" stop-opacity="0.48"/><stop offset="1" stop-color="#4875f6" stop-opacity="0.6"/></linearGradient><clipPath id="clip-path-4" transform="translate(0 -0.89)"><circle class="cls-1" cx="320.19" cy="210.73" r="210.72"/></clipPath><linearGradient id="linear-gradient-20" x1="287.16" y1="186.5" x2="251.23" y2="619.66" gradientUnits="userSpaceOnUse"><stop offset="0" stop-color="#4818f6"/><stop offset="0.74" stop-color="#201254"/><stop offset="1" stop-color="#12101a"/></linearGradient><linearGradient id="linear-gradient-21" x1="379.5" y1="128.28" x2="350.1" y2="482.77" gradientTransform="matrix(1, 0, 0, 1, 0, 0)" xlink:href="#linear-gradient"/><linearGradient id="linear-gradient-22" x1="413.69" y1="179.09" x2="384.29" y2="533.57" gradientTransform="matrix(1, 0, 0, 1, 0, 0)" xlink:href="#linear-gradient-2"/><linearGradient id="linear-gradient-23" x1="438.54" y1="231.37" x2="409.14" y2="585.85" gradientTransform="matrix(1, 0, 0, 1, 0, 0)" xlink:href="#linear-gradient-3"/><linearGradient id="linear-gradient-24" x1="513.15" y1="175.64" x2="331.91" y2="-26.74" gradientUnits="userSpaceOnUse"><stop offset="0.27" stop-color="#4818f6"/><stop offset="0.28" stop-color="#481af6" stop-opacity="0.98"/><stop offset="0.38" stop-color="#4835f6" stop-opacity="0.69"/><stop offset="0.48" stop-color="#484cf6" stop-opacity="0.44"/><stop offset="0.57" stop-color="#485ef6" stop-opacity="0.25"/><stop offset="0.64" stop-color="#486af6" stop-opacity="0.11"/><stop offset="0.71" stop-color="#4872f6" stop-opacity="0.03"/><stop offset="0.75" stop-color="#4875f6" stop-opacity="0"/></linearGradient><linearGradient id="linear-gradient-25" x1="428.81" y1="156.6" x2="406.11" y2="430.23" gradientUnits="userSpaceOnUse"><stop offset="0" stop-color="#fff" stop-opacity="0"/><stop offset="0.01" stop-color="#fff" stop-opacity="0.21"/><stop offset="0.03" stop-color="#fff" stop-opacity="0.55"/><stop offset="0.57" stop-color="#fff" stop-opacity="0.79"/><stop offset="1" stop-color="#fff"/></linearGradient><linearGradient id="linear-gradient-26" x1="3495.68" y1="3104.37" x2="3517.82" y2="3104.37" gradientTransform="translate(3296.59 -3273.14) rotate(90)" gradientUnits="userSpaceOnUse"><stop offset="0" stop-color="#fff"/><stop offset="0.1" stop-color="#dbdada"/><stop offset="0.28" stop-color="#a3a2a2"/><stop offset="0.45" stop-color="#757374"/><stop offset="0.61" stop-color="#524e4f"/><stop offset="0.76" stop-color="#383435"/><stop offset="0.89" stop-color="#282526"/><stop offset="1" stop-color="#231f20"/></linearGradient><linearGradient id="linear-gradient-27" x1="3504.83" y1="3043.35" x2="3515.9" y2="3043.35" xlink:href="#linear-gradient-26"/><linearGradient id="linear-gradient-28" x1="3525.56" y1="2960.66" x2="3540.31" y2="2960.66" xlink:href="#linear-gradient-26"/><linearGradient id="linear-gradient-29" x1="3619.89" y1="2989.97" x2="3635.89" y2="2989.97" xlink:href="#linear-gradient-26"/><linearGradient id="linear-gradient-30" x1="3646.89" y1="3088.54" x2="3654.89" y2="3088.54" xlink:href="#linear-gradient-26"/><linearGradient id="linear-gradient-31" x1="3601.04" y1="3111.45" x2="3606.61" y2="3111.45" xlink:href="#linear-gradient-26"/><linearGradient id="linear-gradient-32" x1="3527.42" y1="2868.46" x2="3538.52" y2="2868.46" xlink:href="#linear-gradient-26"/><linearGradient id="linear-gradient-33" x1="3654.15" y1="2878.84" x2="3659.7" y2="2878.84" xlink:href="#linear-gradient-26"/><linearGradient id="linear-gradient-34" x1="3605.37" y1="2875.53" x2="3620.87" y2="2875.53" xlink:href="#linear-gradient-26"/><linearGradient id="linear-gradient-35" x1="3665.17" y1="2965.78" x2="3673.68" y2="2965.78" xlink:href="#linear-gradient-26"/><linearGradient id="linear-gradient-36" x1="3574.4" y1="3065.34" x2="3583.57" y2="3065.34" xlink:href="#linear-gradient-26"/><linearGradient id="linear-gradient-37" x1="3446.46" y1="2845.25" x2="3461.21" y2="2845.25" xlink:href="#linear-gradient-26"/><linearGradient id="linear-gradient-38" x1="3539.66" y1="-1696.23" x2="3553.48" y2="-1696.23" gradientTransform="translate(2137.07 3662.73) rotate(-90)" gradientUnits="userSpaceOnUse"><stop offset="0" stop-color="#fff" stop-opacity="0"/><stop offset="0.15" stop-color="#d3c8fd" stop-opacity="0.24"/><stop offset="0.32" stop-color="#a993fb" stop-opacity="0.47"/><stop offset="0.48" stop-color="#8667f9" stop-opacity="0.66"/><stop offset="0.63" stop-color="#6b45f8" stop-opacity="0.81"/><stop offset="0.77" stop-color="#582cf7" stop-opacity="0.91"/><stop offset="0.9" stop-color="#4c1df6" stop-opacity="0.98"/><stop offset="1" stop-color="#4818f6"/></linearGradient><linearGradient id="linear-gradient-39" x1="3474.83" y1="-1813.36" x2="3481.74" y2="-1813.36" xlink:href="#linear-gradient-38"/><linearGradient id="linear-gradient-40" x1="3524.53" y1="-1827.84" x2="3533.73" y2="-1827.84" xlink:href="#linear-gradient-38"/><linearGradient id="linear-gradient-41" x1="3584.05" y1="-1830.45" x2="3594.04" y2="-1830.45" xlink:href="#linear-gradient-38"/><linearGradient id="linear-gradient-42" x1="3614.22" y1="-1775.65" x2="3619.21" y2="-1775.65" xlink:href="#linear-gradient-38"/><linearGradient id="linear-gradient-43" x1="3585.6" y1="-1744.31" x2="3589.07" y2="-1744.31" xlink:href="#linear-gradient-38"/><linearGradient id="linear-gradient-44" x1="3507.46" y1="-1905.82" x2="3514.4" y2="-1905.82" xlink:href="#linear-gradient-38"/><linearGradient id="linear-gradient-45" x1="3618.75" y1="-1889.53" x2="3622.22" y2="-1889.53" xlink:href="#linear-gradient-38"/><linearGradient id="linear-gradient-46" x1="3553.76" y1="-1956.15" x2="3557.22" y2="-1956.15" xlink:href="#linear-gradient-38"/><linearGradient id="linear-gradient-47" x1="3557.08" y1="-1891.59" x2="3566.75" y2="-1891.59" xlink:href="#linear-gradient-38"/><linearGradient id="linear-gradient-48" x1="3625.63" y1="-1835.25" x2="3630.94" y2="-1835.25" xlink:href="#linear-gradient-38"/><linearGradient id="linear-gradient-49" x1="3552.61" y1="-1770.18" x2="3558.33" y2="-1770.18" xlink:href="#linear-gradient-38"/><linearGradient id="linear-gradient-50" x1="3484.71" y1="-1992.24" x2="3493.92" y2="-1992.24" xlink:href="#linear-gradient-38"/><linearGradient id="linear-gradient-51" x1="379.67" y1="410.51" x2="231.28" y2="216.49" gradientTransform="translate(15.93 -97.09) rotate(2.03)" xlink:href="#linear-gradient-24"/></defs><title>Planet_1</title><g class="cls-2"><g id="Layer_2" data-name="Layer 2"><g id="Planet"><g class="cls-3"><g class="cls-4"><path class="cls-5" d="M168.47,120.84s17.67,35.84,40.25,36.15,45.41-25.23,78.52-13.49,38.13,33,38.13,33L243,225.34l-85.26-32.13Z" transform="translate(0 -0.89)"/><path class="cls-6" d="M172.7,137.32s17.67,35.84,40.25,36.16,45.41-25.24,78.52-13.49,38.13,33,38.13,33l-82.33,48.84L162,209.7Z" transform="translate(0 -0.89)"/><path class="cls-7" d="M174.35,153.32S192,189.17,214.6,189.48,260,164.25,293.12,176s38.13,33,38.13,33l-82.32,48.85L163.67,225.7Z" transform="translate(0 -0.89)"/><path class="cls-8" d="M178.18,173s17.67,35.84,40.25,36.15S263.85,184,297,195.7s38.13,33,38.13,33l-82.32,48.85L167.5,245.42Z" transform="translate(0 -0.89)"/><path class="cls-9" d="M180.68,190.09s17.67,35.84,40.25,36.16,45.41-25.24,78.52-13.49,38.13,33,38.13,33l-82.33,48.84L170,262.47Z" transform="translate(0 -0.89)"/></g></g><g class="cls-10"><g class="cls-11"><path class="cls-12" d="M182,135.54s14.27,29,32.51,29.2,36.67-20.38,63.41-10.9,30.8,26.65,30.8,26.65l-66.49,39.44L173.39,194Z" transform="translate(0 -0.89)"/><path class="cls-13" d="M185.44,148.85s14.27,29,32.51,29.2,36.67-20.38,63.41-10.89,30.8,26.64,30.8,26.64l-66.49,39.45L176.81,207.3Z" transform="translate(0 -0.89)"/><path class="cls-14" d="M186.77,161.78s14.28,28.94,32.51,29.19S256,170.6,282.69,180.08s30.8,26.64,30.8,26.64L247,246.17l-68.85-25.94Z" transform="translate(0 -0.89)"/><path class="cls-15" d="M189.87,177.7s14.27,29,32.5,29.2,36.68-20.38,63.42-10.9,30.79,26.65,30.79,26.65l-66.49,39.44-68.85-25.94Z" transform="translate(0 -0.89)"/><path class="cls-16" d="M191.89,191.47s14.27,28.95,32.5,29.2,36.68-20.38,63.42-10.9,30.79,26.65,30.79,26.65l-66.49,39.45-68.85-26Z" transform="translate(0 -0.89)"/></g></g><g class="cls-17"><path class="cls-18" d="M195.8,148.42s10.95,22.21,24.93,22.4,28.14-15.63,48.65-8.35S293,182.9,293,182.9l-51,30.27-52.82-19.91Z" transform="translate(0 -0.89)"/><path class="cls-19" d="M198.42,158.64s11,22.2,24.94,22.4,28.13-15.64,48.64-8.36,23.63,20.44,23.63,20.44l-51,30.26-52.82-19.9Z" transform="translate(0 -0.89)"/><path class="cls-20" d="M199.44,168.55s10.95,22.21,24.94,22.4,28.14-15.63,48.65-8.36S296.65,203,296.65,203l-51,30.26-52.81-19.9Z" transform="translate(0 -0.89)"/><path class="cls-21" d="M201.82,180.77s11,22.2,24.93,22.39,28.14-15.63,48.65-8.35S299,215.25,299,215.25l-51,30.26-52.82-19.9Z" transform="translate(0 -0.89)"/><path class="cls-22" d="M203.37,191.33s10.94,22.21,24.93,22.4,28.14-15.63,48.65-8.36,23.62,20.44,23.62,20.44l-51,30.26-52.82-19.9Z" transform="translate(0 -0.89)"/></g><circle class="cls-23" cx="320.19" cy="210.73" r="210.72"/><path class="cls-24" d="M391.48,53.72a142.77,142.77,0,0,1,42.6,23.21c1.58,1.3,3.25,2.52,4.93,3.75s3.3,2.53,4.93,3.83a46.8,46.8,0,0,1,4.48,4.31,45,45,0,0,1,3.68,5c1.07,1.8,2.07,3.63,3,5.52s1.65,3.88,2.32,5.89a57.18,57.18,0,0,1,1.55,6.29c.16,1.1.31,2.19.38,3.32l.1,1.7c0,.59,0,1.15,0,1.75l-1.54.94c-.56-.23-1.05-.5-1.58-.75l-1.47-.79c-1-.53-1.88-1.1-2.77-1.67a60.87,60.87,0,0,1-5.07-3.47c-1.64-1.17-3.16-2.39-4.62-3.64s-2.92-2.48-4.28-3.78a39,39,0,0,1-3.87-4.06,40.33,40.33,0,0,1-3.37-4.48l-3.2-4.72c-1.12-1.53-2.27-3.05-3.49-4.5q-7.46-8.59-15.8-16.66c-5.56-5.4-11.53-10.43-17.73-15.41Z" transform="translate(0 -0.89)"/><path class="cls-25" d="M265.77,40.6a115.78,115.78,0,0,1,16.55-7.06A114.51,114.51,0,0,1,299.87,29c3-.52,6-1.39,9-2a25.26,25.26,0,0,1,4.57-.44,23.42,23.42,0,0,1,4.55.52,35.68,35.68,0,0,1,4.48,1.29,38.46,38.46,0,0,1,4.38,1.94A35.51,35.51,0,0,1,331.08,33c.68.55,1.36,1.09,2,1.72l1,1a14.28,14.28,0,0,1,1,1.07l-.25,1.78c-.4.3-.8.53-1.19.8l-1.17.68c-.78.45-1.54.81-2.29,1.17a40,40,0,0,1-4.43,1.8,45.84,45.84,0,0,1-8.47,2.08,22.85,22.85,0,0,1-8.24-.24L304.85,44a40,40,0,0,0-4.18-.59c-5.59-.42-11.24-.74-17-.94s-11.54-.14-17.47-.08Z" transform="translate(0 -0.89)"/><path class="cls-26" d="M157,113.19a141.7,141.7,0,0,1,25.85-39.75c1.39-1.45,2.7-3,4-4.53s2.7-3,4.08-4.54a46.81,46.81,0,0,1,4.53-4.05,43.43,43.43,0,0,1,5.15-3.21c1.83-.9,3.69-1.74,5.61-2.48s3.91-1.31,5.93-1.8a53.74,53.74,0,0,1,6.26-1c1.09-.07,2.17-.13,3.29-.1l1.67,0c.57,0,1.12.07,1.71.16l.82,1.6c-.26.54-.55,1-.83,1.51l-.87,1.39c-.58.93-1.19,1.77-1.8,2.61-1.2,1.7-2.44,3.26-3.72,4.74s-2.54,2.92-3.86,4.26-2.62,2.69-4,3.92a37.66,37.66,0,0,1-4.22,3.48A40.78,40.78,0,0,1,202,78.35l-4.84,2.75c-1.59,1-3.16,2-4.67,3Q183.53,90.74,175,98.2c-5.71,5-11.12,10.37-16.49,16Z" transform="translate(0 -0.89)"/><g class="cls-27"><path class="cls-28" d="M75.68,228.29S172.87,170.59,267,207s179.19,71.38,224.13,28L382.26,627.51l-241.74-2Z" transform="translate(0 -0.89)"/><path class="cls-29" d="M73.57,205.76s103,100.29,180,74.19,123.64-140.19,250-140.19,169,66,169,66L452.15,470.43,124.4,464.05Z" transform="translate(0 -0.89)"/><path class="cls-30" d="M107.76,256.57s103,100.29,180,74.19,123.64-140.19,250-140.19,169,66,169,66L486.34,521.24l-327.75-6.38Z" transform="translate(0 -0.89)"/><path class="cls-31" d="M132.61,308.85s103,100.29,180,74.19,123.65-140.19,250-140.19,169,66,169,66L511.19,573.52l-327.75-6.38Z" transform="translate(0 -0.89)"/></g><path class="cls-32" d="M525.47,164.61c-11.32,8.38-23.45,17-36.28,25.85C479,89.13,398.28,11.32,300,1.86l2.65-.24a210.62,210.62,0,0,1,185.7,83.13c1.61,2.15,3.2,4.33,4.74,6.55A209.21,209.21,0,0,1,525.47,164.61Z" transform="translate(0 -0.89)"/><path class="cls-33" d="M337.45,421.62a211.57,211.57,0,0,1-37.86-.24c110.35-10.52,193.08-104.62,190.62-214.29q-.13-6.41-.68-12.88c-.1-1.25-.21-2.5-.34-3.75,12.83-8.82,25-17.47,36.28-25.85q1.62,7.19,2.77,14.54T530,194.21C539.65,310.19,453.42,412,337.45,421.62Z" transform="translate(0 -0.89)"/><g class="cls-34"><circle class="cls-35" cx="192.22" cy="233.83" r="11.3"/><circle class="cls-36" cx="253.24" cy="237.34" r="5.65"/><circle class="cls-37" cx="335.92" cy="259.94" r="7.52"/><circle class="cls-38" cx="306.62" cy="354.92" r="8.16"/><circle class="cls-39" cx="208.05" cy="377.83" r="4.08"/><circle class="cls-40" cx="185.14" cy="330.74" r="2.84"/><circle class="cls-41" cx="428.13" cy="259.94" r="5.66"/><circle class="cls-42" cx="417.75" cy="383.85" r="2.83"/><circle class="cls-43" cx="421.06" cy="340.14" r="7.9"/><circle class="cls-44" cx="330.8" cy="396.37" r="4.35"/><circle class="cls-45" cx="231.25" cy="305.94" r="4.68"/><circle class="cls-46" cx="451.34" cy="180.84" r="7.52"/></g><g class="cls-34"><circle class="cls-47" cx="440.85" cy="116.02" r="7.05"/><circle class="cls-48" cx="323.72" cy="184.37" r="3.53"/><circle class="cls-49" cx="309.23" cy="133.5" r="4.7"/><circle class="cls-50" cx="306.62" cy="73.58" r="5.1"/><circle class="cls-51" cx="361.43" cy="45.96" r="2.55"/><circle class="cls-52" cx="392.76" cy="75.36" r="1.77"/><circle class="cls-53" cx="231.25" cy="151.73" r="3.54"/><circle class="cls-54" cx="247.55" cy="42.21" r="1.77"/><circle class="cls-55" cx="180.92" cy="107.2" r="1.77"/><circle class="cls-56" cx="245.48" cy="100.71" r="4.93"/><circle class="cls-57" cx="301.82" cy="34.39" r="2.71"/><circle class="cls-58" cx="366.89" cy="107.2" r="2.92"/><circle class="cls-59" cx="144.83" cy="173.32" r="4.7"/></g><path class="cls-60" d="M127.91,301.29c-77.36,51.65-123,95.25-113.67,113.54,15.14,29.74,174-11.5,349.51-100.89S665.07,120.84,649.92,91.1C641,73.65,584.1,83.1,503.07,112m0,0,3.9,7c71.1-25.88,121.94-36.23,129.21-22,13.18,25.88-121.74,122.84-282.32,204.61s-314.4,130.86-327.57,105c-7.75-15.22,34.83-52.95,103.86-98.08l-2.24-7.21" transform="translate(0 -0.89)"/><path class="cls-61" d="M530.27,193.13q-18.25,13-39,26.57a1528.59,1528.59,0,0,1-140.56,80.95C175.18,390,16.35,431.27,1.2,401.54c-9.58-18.82,38.95-64.39,120.34-118a23.61,23.61,0,0,0,3,6.78C51.18,337.62,5.23,377.53,13.25,393.28c13.18,25.87,167-23.21,327.58-105C395.4,260.51,447,231,490.84,203.05,504,194.69,516.41,186.48,528,178.5c63.68-43.75,102.49-80.37,95.14-94.82-7.13-14-56.08-4.33-124.93,20.41-1.45-2.28-3-4.51-4.5-6.72C572.79,69.53,628.14,60.62,636.89,77.8,646,95.76,603.81,140.68,530.27,193.13Z" transform="translate(0 -0.89)"/></g></g></g></svg>