<svg xmlns="http://www.w3.org/2000/svg" xmlns:xlink="http://www.w3.org/1999/xlink" viewBox="0 0 60 60"><defs><style>.cls-1{fill:#12101a;}.cls-2{fill:url(#linear-gradient);}.cls-3{fill:url(#linear-gradient-2);}</style><linearGradient id="linear-gradient" x1="24.9" y1="15.55" x2="24.9" y2="45.4" gradientUnits="userSpaceOnUse"><stop offset="0" stop-color="#f4dc3d"/><stop offset="0.52" stop-color="#f1b21c"/><stop offset="1" stop-color="#ee8f00"/></linearGradient><linearGradient id="linear-gradient-2" x1="47.04" y1="14.48" x2="47.04" y2="45.4" xlink:href="#linear-gradient"/></defs><title>ai_7</title><g id="Layer_2" data-name="Layer 2"><g id="Layer_1-2" data-name="Layer 1"><rect class="cls-1" width="60" height="60" rx="5" transform="translate(60 0) rotate(90)"/><path class="cls-2" d="M32.29,38.49H17.37L14.43,45.4H8.72L22.15,15.55H27.6L41.08,45.4h-5.8Zm-1.83-4.35-5.63-13-5.58,13Z"/><path class="cls-3" d="M43.63,17.68A3.25,3.25,0,0,1,47,14.48a3.18,3.18,0,0,1,3.42,3.07,3.42,3.42,0,0,1-6.83.13Zm.73,4.95h5.33V45.4H44.36Z"/></g></g></svg>