<svg xmlns="http://www.w3.org/2000/svg" xmlns:xlink="http://www.w3.org/1999/xlink" viewBox="0 0 60 60"><defs><style>.cls-1{fill:#12101a;}.cls-2{fill:url(#linear-gradient);}.cls-3{fill:url(#linear-gradient-2);}.cls-4{fill:url(#linear-gradient-3);}.cls-5{fill:url(#linear-gradient-4);}.cls-6{fill:url(#linear-gradient-5);}.cls-7{fill:url(#linear-gradient-6);}.cls-8{fill:url(#linear-gradient-7);}</style><linearGradient id="linear-gradient" x1="14.83" y1="14.62" x2="14.83" y2="21.66" gradientUnits="userSpaceOnUse"><stop offset="0" stop-color="#d12af6"/><stop offset="0.33" stop-color="#b521e8"/><stop offset="1" stop-color="#8010cd"/></linearGradient><linearGradient id="linear-gradient-2" x1="22.63" y1="14.7" x2="22.63" y2="21.57" xlink:href="#linear-gradient"/><linearGradient id="linear-gradient-3" x1="30.55" y1="14.7" x2="30.55" y2="21.66" xlink:href="#linear-gradient"/><linearGradient id="linear-gradient-4" x1="37.99" y1="14.62" x2="37.99" y2="21.57" xlink:href="#linear-gradient"/><linearGradient id="linear-gradient-5" x1="44.22" y1="14.62" x2="44.22" y2="21.66" xlink:href="#linear-gradient"/><linearGradient id="linear-gradient-6" x1="20.02" y1="25.91" x2="20.02" y2="45.35" xlink:href="#linear-gradient"/><linearGradient id="linear-gradient-7" x1="40.15" y1="25.91" x2="40.15" y2="45.35" xlink:href="#linear-gradient"/></defs><title>axure_7</title><g id="Layer_2" data-name="Layer 2"><g id="Layer_1-2" data-name="Layer 1"><path class="cls-1" d="M60,10V50A10,10,0,0,1,50,60H10A10,10,0,0,1,0,50V10A10,10,0,0,1,10,0H50A10,10,0,0,1,60,10Z"/><path class="cls-2" d="M18,17.54v4H16.43v-.84a2.44,2.44,0,0,1-2.16.93c-1.57,0-2.56-.86-2.56-2.06s.77-2,2.86-2h1.77v-.11c0-.94-.57-1.49-1.71-1.49a3.41,3.41,0,0,0-2.08.68l-.63-1.17a4.86,4.86,0,0,1,2.9-.85C16.8,14.62,18,15.56,18,17.54Zm-1.61,1.88v-.8H14.68c-1.09,0-1.39.41-1.39.92s.49.95,1.31.95A1.75,1.75,0,0,0,16.34,19.42Z"/><path class="cls-3" d="M24.38,21.57l-1.76-2.38-1.78,2.38H19.07l2.67-3.49L19.18,14.7H21L22.65,17l1.69-2.25h1.74L23.5,18.06l2.69,3.51Z"/><path class="cls-4" d="M33.9,14.7v6.87H32.37v-.88a2.83,2.83,0,0,1-2.22,1,2.72,2.72,0,0,1-3-3V14.7H28.8v3.7c0,1.25.59,1.84,1.61,1.84a1.81,1.81,0,0,0,1.88-2.07V14.7Z"/><path class="cls-5" d="M40,14.62v1.53a2.76,2.76,0,0,0-.37,0,1.88,1.88,0,0,0-2,2.13v3.33H36V14.7h1.53v1A2.72,2.72,0,0,1,40,14.62Z"/><path class="cls-6" d="M47.71,18.65H42.32a2.07,2.07,0,0,0,2.22,1.64,2.46,2.46,0,0,0,1.87-.74l.86,1a3.49,3.49,0,0,1-2.76,1.12,3.49,3.49,0,0,1-3.8-3.53,3.42,3.42,0,0,1,3.55-3.51,3.34,3.34,0,0,1,3.47,3.55C47.73,18.3,47.72,18.49,47.71,18.65Zm-5.4-1.07H46.2a1.86,1.86,0,0,0-1.94-1.67A1.89,1.89,0,0,0,42.31,17.58Z"/><path class="cls-7" d="M24.43,45.35l-4-5.69c-.25,0-.5,0-.75,0H15.32v5.67H11.71V25.91h8c5.11,0,8.28,2.61,8.28,6.91A6.21,6.21,0,0,1,23.85,39l4.47,6.39ZM19.54,29H15.32v7.75h4.22c3.17,0,4.81-1.44,4.81-3.89S22.71,29,19.54,29Z"/><path class="cls-8" d="M48.29,32.82c0,4.28-3.17,6.92-8.28,6.92H35.62v5.61H32V25.91h8C45.12,25.91,48.29,28.52,48.29,32.82Zm-3.64,0c0-2.44-1.64-3.86-4.8-3.86H35.62v7.72h4.23C43,36.68,44.65,35.27,44.65,32.82Z"/></g></g></svg>