<svg xmlns="http://www.w3.org/2000/svg" xmlns:xlink="http://www.w3.org/1999/xlink" viewBox="0 0 60 60"><defs><style>.cls-1{fill:none;}.cls-2{fill:url(#linear-gradient);}.cls-3{fill:#4875f6;}.cls-4{fill:url(#linear-gradient-2);}.cls-5{fill:url(#linear-gradient-3);}.cls-6{fill:#a8a8a8;}.cls-7{fill:#c4c4c4;}.cls-8{fill:#c5c5c5;}.cls-9{fill:#fff;}.cls-10{fill:#8a8a8a;}</style><linearGradient id="linear-gradient" x1="7.5" y1="35.99" x2="52.5" y2="35.99" gradientUnits="userSpaceOnUse"><stop offset="0" stop-color="#4875f6"/><stop offset="0.22" stop-color="#486cf6" stop-opacity="0.99"/><stop offset="0.59" stop-color="#4853f6" stop-opacity="0.98"/><stop offset="1" stop-color="#482ff6" stop-opacity="0.95"/></linearGradient><linearGradient id="linear-gradient-2" x1="7.5" y1="30.11" x2="52.5" y2="30.11" xlink:href="#linear-gradient"/><linearGradient id="linear-gradient-3" x1="7.5" y1="23.06" x2="52.5" y2="23.06" xlink:href="#linear-gradient"/></defs><title>bootstrap_1</title><g id="Layer_2" data-name="Layer 2"><g id="Layer_1-2" data-name="Layer 1"><rect class="cls-1" width="60" height="60" rx="5"/><path class="cls-2" d="M50.76,33.58c2.3,1.33,2.33,3.48,0,4.82L34.23,48a9.17,9.17,0,0,1-8.32,0L9.24,38.4a4.19,4.19,0,0,1-1-.74c-1.18-1.18-1-2.7.51-3.8a2.78,2.78,0,0,1,.42-.28L25.77,24a9.15,9.15,0,0,1,8.31,0Z"/><path class="cls-3" d="M52.4,36.61a.64.64,0,0,0,0,.07,2.32,2.32,0,0,1-.28.54l-.06.1a3.16,3.16,0,0,1-.47.51,3.51,3.51,0,0,1-.42.31,3.32,3.32,0,0,1-.36.26L34.23,48a6.08,6.08,0,0,1-1.16.51l-.44.14-.59.14c-.24,0-.47.1-.72.13l-.17,0c-.33,0-.66,0-1,.06H30c-.32,0-.65,0-1-.06h-.15c-.32,0-.64-.1-.95-.17l-.16,0a7.1,7.1,0,0,1-.82-.25l-.14,0a7.49,7.49,0,0,1-.9-.43L9.24,38.4a4.19,4.19,0,0,1-1-.74A2.39,2.39,0,0,1,7.5,36v1a2.39,2.39,0,0,0,.78,1.69,4,4,0,0,0,1,.73L25.91,49a6.69,6.69,0,0,0,.85.41h0l.15.05c.17.06.34.13.52.18l.29.07.17,0,.15,0,.59.1.21,0,.14,0,.22,0,.58,0h.6c.22,0,.44,0,.65,0h.08l.17,0,.5-.07.22,0,.58-.14.32-.08.13-.06A6,6,0,0,0,34.22,49l16.57-9.63.07,0,.29-.21a3.51,3.51,0,0,0,.42-.31l0,0a3.2,3.2,0,0,0,.36-.39l.07-.09.06-.1.11-.16a3.54,3.54,0,0,0,.16-.34.11.11,0,0,1,0,0l0-.06a1.66,1.66,0,0,0,.06-.21c0-.12,0-.23,0-.34V36A2.09,2.09,0,0,1,52.4,36.61Z"/><path class="cls-4" d="M50.76,27.7c2.3,1.34,2.33,3.48,0,4.82L34.23,42.15a9.17,9.17,0,0,1-8.32,0L9.24,32.52a4.17,4.17,0,0,1-1-.73c-1.18-1.19-1-2.71.51-3.8a3.82,3.82,0,0,1,.42-.29l16.56-9.63a9.15,9.15,0,0,1,8.31,0Z"/><path class="cls-3" d="M52.4,30.74s0,0,0,.06a2.14,2.14,0,0,1-.28.54l-.06.1a2.79,2.79,0,0,1-.47.51,3.51,3.51,0,0,1-.42.31,3.32,3.32,0,0,1-.36.26L34.23,42.15a6.76,6.76,0,0,1-1.16.5l-.44.14c-.2.05-.39.11-.59.15s-.47.09-.72.12l-.17,0a8.22,8.22,0,0,1-1,.06H30c-.32,0-.65,0-1,0l-.15,0c-.32,0-.64-.09-.95-.16l-.16,0c-.28-.07-.56-.16-.82-.25l-.14,0a6.19,6.19,0,0,1-.9-.42L9.24,32.52a4.17,4.17,0,0,1-1-.73A2.41,2.41,0,0,1,7.5,30.1v1a2.37,2.37,0,0,0,.78,1.68,4.06,4.06,0,0,0,1,.74L25.91,43.1a5.57,5.57,0,0,0,.85.41l0,0,.15,0,.52.17.29.07.17,0,.15,0a5.58,5.58,0,0,0,.59.1l.21,0H29l.22,0,.58,0h.6l.65-.05h.08l.17,0,.5-.07.22-.06.58-.14.32-.08.13-.06a6,6,0,0,0,1.15-.51l16.57-9.62.07,0a3.06,3.06,0,0,0,.29-.21,3.51,3.51,0,0,0,.42-.31l0,0a3.2,3.2,0,0,0,.36-.39L52,32.4l.06-.1a.91.91,0,0,0,.11-.16c.06-.11.11-.22.16-.33a.07.07,0,0,1,0,0s0-.05,0-.07a1.66,1.66,0,0,0,.06-.21c0-.11,0-.23,0-.34v-1A2.11,2.11,0,0,1,52.4,30.74Z"/><path class="cls-5" d="M50.76,20.65c2.3,1.33,2.33,3.48,0,4.82L34.23,35.09a9.17,9.17,0,0,1-8.32,0L9.24,25.47a3.93,3.93,0,0,1-1-.74c-1.18-1.18-1-2.7.51-3.8a2.78,2.78,0,0,1,.42-.28L25.77,11a9.15,9.15,0,0,1,8.31,0Z"/><path class="cls-3" d="M52.4,23.68s0,.05,0,.07a2.32,2.32,0,0,1-.28.54l-.06.1a3.16,3.16,0,0,1-.47.51,3.51,3.51,0,0,1-.42.31,3.32,3.32,0,0,1-.36.26L34.23,35.09a6.08,6.08,0,0,1-1.16.51l-.44.14-.59.14c-.24,0-.47.1-.72.13l-.17,0c-.33,0-.66,0-1,.06H30c-.32,0-.65,0-1-.06h-.15c-.32,0-.64-.1-.95-.17l-.16,0c-.28-.07-.56-.15-.82-.24l-.14,0a7.49,7.49,0,0,1-.9-.43L9.24,25.47a3.93,3.93,0,0,1-1-.74A2.39,2.39,0,0,1,7.5,23v1a2.39,2.39,0,0,0,.78,1.69,4,4,0,0,0,1,.73l16.68,9.63a6.69,6.69,0,0,0,.85.41h0l.15.05a4.56,4.56,0,0,0,.52.18l.29.07.17,0,.15,0,.59.1.21,0L29,37l.22,0,.58,0h.6c.22,0,.44,0,.65,0h.08l.17,0,.5-.07.22-.06.58-.14.32-.08.13-.06a6,6,0,0,0,1.15-.51l16.57-9.63.07,0a3.06,3.06,0,0,0,.29-.21,3.51,3.51,0,0,0,.42-.31l0,0a3.2,3.2,0,0,0,.36-.39l.07-.09.06-.1.11-.16c.06-.11.11-.22.16-.33a.13.13,0,0,1,0-.06s0,0,0-.06a1.66,1.66,0,0,0,.06-.21c0-.12,0-.23,0-.34v-1A2.09,2.09,0,0,1,52.4,23.68Z"/><path class="cls-6" d="M34.35,19.51s0,0,0,0a2.79,2.79,0,0,1-.32.58l0,.7c.06-.07.1-.15.15-.22s.12-.23.17-.34v0s0,0,0,0,0-.16.07-.25a1.35,1.35,0,0,0,0-.29v0l0-.7A2,2,0,0,1,34.35,19.51Z"/><path class="cls-7" d="M31.45,17.8l-.07,0a4.37,4.37,0,0,0-.57-.29l-.11,0-.12,0-.21-.08L30,17.23l-.09,0h-.06a1,1,0,0,0-.17,0l-.31-.05-.28,0h-.37l-.4,0h-.15l-.37.05-.19,0-.53.13-.24,0-.15.06c-.22.07-.45.16-.67.25l-.32.13a9.44,9.44,0,0,0-1,.51l-4.85,2.8,0,.7L24.69,19c.34-.19.67-.36,1-.51l.31-.12a6.22,6.22,0,0,1,.68-.25,2.72,2.72,0,0,1,.38-.11l.54-.13c.19,0,.37-.07.56-.09h.1a7.18,7.18,0,0,1,.8,0h0a6.15,6.15,0,0,1,.75.1h.06a5.12,5.12,0,0,1,.67.19l.12,0a4.73,4.73,0,0,1,.68.33l.06,0c.74.45,1.1.95,1.08,1.47l0-.7C32.54,18.75,32.19,18.25,31.45,17.8Z"/><path class="cls-8" d="M38.64,21.11l-.09,0-.12,0-.25-.09c-.12,0-.24-.07-.36-.09l-.1,0h0l-.17,0-.31,0-.3,0h-.34l-.38,0h-.12l-.13,0a2.13,2.13,0,0,0-.25,0,2.44,2.44,0,0,0-.26.06,5.23,5.23,0,0,0-.54.12l-.2.05-.19.07c-.26.09-.51.18-.77.29a3.49,3.49,0,0,0-.34.15c-.37.17-.75.36-1.14.58v.7c.38-.22.76-.41,1.13-.58l.34-.15c.26-.11.52-.2.77-.29l.39-.12.55-.12.5-.09.14,0a5.35,5.35,0,0,1,.8,0h0a4.27,4.27,0,0,1,.8.1h.06a5.6,5.6,0,0,1,.7.2l.12,0a7,7,0,0,1,.73.35l.08.05v-.7l-.07,0A5.46,5.46,0,0,0,38.64,21.11Z"/><path class="cls-8" d="M39.35,21.47v.7c.79.48,1.17,1,1.15,1.52l0-.7C40.52,22.46,40.15,22,39.35,21.47Z"/><polygon class="cls-8" points="26.86 25.22 26.84 25.92 32.22 22.82 32.23 22.12 26.86 25.22"/><path class="cls-9" d="M39.46,26.3l-7,4-15.57-9,6.57-3.79c3.39-2,6.82-2.24,9.36-.77l.09.06c1.69,1,1.91,2.23,1.11,3.34a8.18,8.18,0,0,1,7,.44l.1.06C43.66,22.16,43.21,24.13,39.46,26.3Zm-12.6-1.08,5.84,3.4,5.38-3.1c2.64-1.53,3.23-2.87,1.27-4.05l-.07,0c-2-1.18-4.37-.86-7.05.69l-5.37,3.1m-7-4.07,5.64,3.28,4.85-2.8c2.41-1.39,2.89-2.74,1.1-3.83l-.07,0c-1.87-1.09-4.24-.83-6.67.58l-4.85,2.8"/><polygon class="cls-10" points="32.46 30.34 32.44 31.04 16.88 21.99 16.89 21.29 32.46 30.34"/><path class="cls-8" d="M42.72,22.79a2.71,2.71,0,0,1-.06.38l0,.1c0,.09-.06.18-.1.27a1.09,1.09,0,0,1-.08.15l-.13.23-.17.24-.15.18a5.76,5.76,0,0,1-.55.56v0c-.22.19-.49.4-.77.6l-.22.15c-.3.2-.61.4-1,.61l0,0-7,4,0,.7,7-4h0c.36-.21.67-.41,1-.61l.22-.15a9,9,0,0,0,.77-.61h0A7.16,7.16,0,0,0,42,25a.46.46,0,0,1,.07-.07,1.05,1.05,0,0,1,.07-.11,2.2,2.2,0,0,0,.17-.25l.08-.1.06-.12.07-.15a.31.31,0,0,0,.05-.1.84.84,0,0,0,0-.17,1,1,0,0,1,0-.1s0,0,0,0,0-.2,0-.3v0h0Z"/></g></g></svg>