<svg xmlns="http://www.w3.org/2000/svg" xmlns:xlink="http://www.w3.org/1999/xlink" viewBox="0 0 30 30"><defs><style>.cls-1{fill:#12101a;}.cls-2{fill:url(#linear-gradient);}.cls-3{fill:url(#linear-gradient-2);}.cls-4{fill:url(#linear-gradient-3);}</style><linearGradient id="linear-gradient" x1="6.63" y1="9.19" x2="6.63" y2="20.81" gradientUnits="userSpaceOnUse"><stop offset="0" stop-color="#4875f6"/><stop offset="1" stop-color="#482ff6" stop-opacity="0.95"/></linearGradient><linearGradient id="linear-gradient-2" x1="16.18" y1="11.93" x2="16.18" y2="20.76" xlink:href="#linear-gradient"/><linearGradient id="linear-gradient-3" x1="24.49" y1="11.93" x2="24.49" y2="20.76" xlink:href="#linear-gradient"/></defs><title>css_3</title><g id="Layer_2" data-name="Layer 2"><g id="Layer_1-2" data-name="Layer 1"><rect class="cls-1" width="30" height="30" rx="5"/><path class="cls-2" d="M1.37,15A5.76,5.76,0,0,1,7.42,9.19a5.71,5.71,0,0,1,4.47,1.89l-1.36,1.27a4,4,0,0,0-3-1.32,3.86,3.86,0,0,0-4,4,3.86,3.86,0,0,0,4,4,3.94,3.94,0,0,0,3-1.34l1.36,1.29A5.73,5.73,0,0,1,7.4,20.81,5.75,5.75,0,0,1,1.37,15Z"/><path class="cls-3" d="M12.4,19.79l.78-1.53a5.77,5.77,0,0,0,3,.85c1.27,0,1.8-.35,1.8-.95,0-1.64-5.32-.09-5.32-3.53,0-1.63,1.47-2.7,3.79-2.7a6.85,6.85,0,0,1,3.23.75l-.78,1.53a4.73,4.73,0,0,0-2.46-.65c-1.23,0-1.81.41-1.81,1,0,1.74,5.32.2,5.32,3.57,0,1.61-1.48,2.66-3.9,2.66A6.85,6.85,0,0,1,12.4,19.79Z"/><path class="cls-4" d="M20.71,19.79l.78-1.53a5.77,5.77,0,0,0,3,.85c1.27,0,1.8-.35,1.8-.95,0-1.64-5.32-.09-5.32-3.53,0-1.63,1.47-2.7,3.79-2.7a6.85,6.85,0,0,1,3.23.75l-.78,1.53a4.73,4.73,0,0,0-2.46-.65c-1.23,0-1.81.41-1.81,1,0,1.74,5.32.2,5.32,3.57,0,1.61-1.48,2.66-3.9,2.66A6.85,6.85,0,0,1,20.71,19.79Z"/></g></g></svg>