<svg xmlns="http://www.w3.org/2000/svg" xmlns:xlink="http://www.w3.org/1999/xlink" viewBox="0 0 30 30"><defs><style>.cls-1{fill:#12101a;}.cls-2{fill:url(#linear-gradient);}.cls-3{fill:url(#linear-gradient-2);}</style><linearGradient id="linear-gradient" x1="10.08" y1="7.74" x2="10.08" y2="10.91" gradientUnits="userSpaceOnUse"><stop offset="0" stop-color="#d12af6"/><stop offset="0.33" stop-color="#b521e8"/><stop offset="1" stop-color="#8010cd"/></linearGradient><linearGradient id="linear-gradient-2" x1="15" y1="12.14" x2="15" y2="22.82" xlink:href="#linear-gradient"/></defs><title>invision_6</title><g id="Layer_2" data-name="Layer 2"><g id="Layer_1-2" data-name="Layer 1"><path class="cls-1" d="M30,5V25a5,5,0,0,1-5,5H5a5,5,0,0,1-5-5V5A5,5,0,0,1,5,0H25A5,5,0,0,1,30,5Z"/><path class="cls-2" d="M11.69,9.32a1.61,1.61,0,0,1-3.21,0,1.61,1.61,0,0,1,3.21,0Z"/><path class="cls-3" d="M23.88,19.77c-.1.28-.19.55-.29.82a4.09,4.09,0,0,1-1,1.5,2.6,2.6,0,0,1-2,.71,2.78,2.78,0,0,1-1-.18A2,2,0,0,1,18.4,21a4.37,4.37,0,0,1,.17-1.9c.26-.9.52-1.8.76-2.71a2.08,2.08,0,0,0,0-1.16,1.23,1.23,0,0,0-1.13-.95,1.92,1.92,0,0,0-1.85.92,5.43,5.43,0,0,0-.6,1.57c-.48,1.91-.95,3.81-1.43,5.73,0,.06,0,.12-.12.12H11.67l.45-1.79-.43.57a3.62,3.62,0,0,1-1.91,1.29,3.13,3.13,0,0,1-1.69,0,1.92,1.92,0,0,1-1.42-1.64,4.75,4.75,0,0,1,.16-2c.36-1.51.74-3,1.12-4.56a.22.22,0,0,1,0-.08H6.12a.28.28,0,0,1,0-.09c.18-.64.35-1.28.51-1.9,0-.08.05-.11.13-.11h4.38l-.09.37c-.57,2.25-1.15,4.51-1.71,6.77a5.8,5.8,0,0,0-.12.92.58.58,0,0,0,.62.65,2.4,2.4,0,0,0,1.37-.41,3.19,3.19,0,0,0,1.32-1.58,8.64,8.64,0,0,0,.27-1c.3-1.18.58-2.35.88-3.53a.2.2,0,0,1,0-.07H11.83c0-.13.07-.25.1-.36.14-.54.3-1.08.44-1.62,0-.08,0-.12.14-.12h3.92c-.16.75-.33,1.5-.49,2.24h0l.07-.11a5.52,5.52,0,0,1,1.95-2,2.91,2.91,0,0,1,1.43-.4,2.57,2.57,0,0,1,2.5,1.76,4.33,4.33,0,0,1,.17,1.89A13.29,13.29,0,0,1,21.56,18c-.17.65-.36,1.3-.52,2a1.8,1.8,0,0,0,0,.66.51.51,0,0,0,.72.44,1,1,0,0,0,.46-.37,4.31,4.31,0,0,0,.59-1.15.46.46,0,0,0,.05-.14Z"/></g></g></svg>