<svg xmlns="http://www.w3.org/2000/svg" xmlns:xlink="http://www.w3.org/1999/xlink" viewBox="0 0 60 60"><defs><style>.cls-1{fill:#12101a;}.cls-2{fill:url(#linear-gradient);}.cls-3{fill:url(#linear-gradient-2);}</style><linearGradient id="linear-gradient" x1="18.21" y1="17.54" x2="18.21" y2="43.03" gradientUnits="userSpaceOnUse"><stop offset="0" stop-color="#f4dc3d"/><stop offset="0.52" stop-color="#f1b21c"/><stop offset="1" stop-color="#ee8f00"/></linearGradient><linearGradient id="linear-gradient-2" x1="40.57" y1="17.26" x2="40.57" y2="43.03" xlink:href="#linear-gradient"/></defs><title>js_2</title><g id="Layer_2" data-name="Layer 2"><g id="Layer_1-2" data-name="Layer 1"><rect class="cls-1" width="60" height="60" rx="5"/><path class="cls-2" d="M10.6,39.39,12.69,37a6.27,6.27,0,0,0,5.25,3c2.85,0,4.32-1.72,4.32-5.11V20.68H13.15V17.54H25.83v17.1c0,5.62-2.74,8.39-7.89,8.39A8.78,8.78,0,0,1,10.6,39.39Z"/><path class="cls-3" d="M30.87,39.86l1.33-2.81A12.91,12.91,0,0,0,40.51,40c4.36,0,6.23-1.69,6.23-3.89,0-6.15-15.26-2.27-15.26-11.62,0-3.89,3-7.2,9.64-7.2a14.79,14.79,0,0,1,8.1,2.23L48,22.37a13,13,0,0,0-6.92-2.05c-4.28,0-6.11,1.8-6.11,4,0,6.16,15.26,2.31,15.26,11.56,0,3.85-3.1,7.16-9.76,7.16C36.66,43,32.88,41.73,30.87,39.86Z"/></g></g></svg>