<svg xmlns="http://www.w3.org/2000/svg" xmlns:xlink="http://www.w3.org/1999/xlink" viewBox="0 0 30 30"><defs><style>.cls-1{fill:#12101a;}.cls-2{fill:url(#linear-gradient);}.cls-3{fill:url(#linear-gradient-2);}</style><linearGradient id="linear-gradient" x1="9.27" y1="7.71" x2="9.27" y2="22.7" gradientUnits="userSpaceOnUse"><stop offset="0" stop-color="#4875f6"/><stop offset="0.22" stop-color="#486cf6" stop-opacity="0.99"/><stop offset="0.59" stop-color="#4853f6" stop-opacity="0.98"/><stop offset="1" stop-color="#482ff6" stop-opacity="0.95"/></linearGradient><linearGradient id="linear-gradient-2" x1="21.99" y1="11.14" x2="21.99" y2="22.85" xlink:href="#linear-gradient"/></defs><title>ps_7</title><g id="Layer_2" data-name="Layer 2"><g id="Layer_1-2" data-name="Layer 1"><rect class="cls-1" width="30" height="30" rx="5" transform="translate(0 30) rotate(-90)"/><path class="cls-2" d="M15.55,13c0,3.3-2.44,5.34-6.38,5.34H5.78V22.7H3v-15H9.17C13.11,7.71,15.55,9.73,15.55,13Zm-2.81,0c0-1.88-1.26-3-3.7-3H5.78V16H9C11.48,16,12.74,14.93,12.74,13Z"/><path class="cls-3" d="M17,21.57l1-2a7.72,7.72,0,0,0,4,1.14c1.69,0,2.4-.48,2.4-1.27,0-2.18-7.07-.13-7.07-4.69,0-2.16,1.95-3.57,5-3.57a9.15,9.15,0,0,1,4.29,1l-1,2a6.21,6.21,0,0,0-3.28-.86c-1.62,0-2.4.54-2.4,1.29,0,2.31,7.07.25,7.07,4.73,0,2.14-2,3.53-5.18,3.53A9.16,9.16,0,0,1,17,21.57Z"/></g></g></svg>