<svg xmlns="http://www.w3.org/2000/svg" viewBox="0 0 30 30"><defs><style>.cls-1{fill:#12101a;}.cls-2{fill:#df2af6;}</style></defs><title>sass_1</title><g id="Layer_2" data-name="Layer 2"><g id="Layer_1-2" data-name="Layer 1"><path class="cls-1" d="M30,5V25a5,5,0,0,1-5,5H5a4.5,4.5,0,0,1-1.33-.19A5,5,0,0,1,0,25.55,3.31,3.31,0,0,1,0,25V5A5,5,0,0,1,5,0H25A5,5,0,0,1,30,5Z"/><path class="cls-2" d="M28.2,19a2.76,2.76,0,0,0-1.35-1.93,4.51,4.51,0,0,0-3.05-.56,5.29,5.29,0,0,0-1.59.47c-.06,0-.09,0-.12-.05s-.11-.22-.17-.33a2.94,2.94,0,0,1-.37-1.84,4.54,4.54,0,0,1,.28-1c.06-.18,0-.27-.15-.34a.6.6,0,0,0-.19-.06,2.89,2.89,0,0,0-1,.06.45.45,0,0,0-.37.35,6.53,6.53,0,0,1-.27,1,22,22,0,0,1-1,2c-.14.26-.3.51-.45.77l0,0-.12-.24A2.89,2.89,0,0,1,18,15.58a5,5,0,0,1,.28-1.07c.05-.15,0-.22-.1-.3a.67.67,0,0,0-.18-.07,2.49,2.49,0,0,0-1.15.09.29.29,0,0,0-.21.23,5.24,5.24,0,0,1-.26.88c-.49,1.14-1,2.26-1.5,3.39-.26.57-.51,1.13-.81,1.67,0,.05-.06.13-.14.15a1.53,1.53,0,0,1,0-.52,14.56,14.56,0,0,1,.35-1.59c.11-.44.23-.87.34-1.31a.31.31,0,0,0-.18-.39.75.75,0,0,0-.33-.1.53.53,0,0,0-.36.15v-.08a2.92,2.92,0,0,0,0-.78.84.84,0,0,0-.67-.81,1.15,1.15,0,0,0-.61.06,3.66,3.66,0,0,0-1.66,1.18,2.21,2.21,0,0,1-.66.56C9.4,17.3,8.69,17.7,8,18.1c0,0-.07.06-.13,0A15.76,15.76,0,0,0,6,16.56a9.53,9.53,0,0,1-1.63-1.48,2.59,2.59,0,0,1-.55-2.54A4.57,4.57,0,0,1,5,10.72,11.2,11.2,0,0,1,7.15,9a17.9,17.9,0,0,1,3.57-1.75,9.2,9.2,0,0,1,4.09-.55,3.55,3.55,0,0,1,1.38.41A1.4,1.4,0,0,1,17,8.46a2.81,2.81,0,0,1-.4,1.42,6.47,6.47,0,0,1-2.91,2.59,8.06,8.06,0,0,1-3,.8,3,3,0,0,1-2.6-.84c-.05,0-.1-.1-.18,0a.18.18,0,0,0-.08.2,1.28,1.28,0,0,0,.22.49,2.86,2.86,0,0,0,1.49,1,6,6,0,0,0,1.79.15,9.87,9.87,0,0,0,2.4-.45,6.85,6.85,0,0,0,4-3,4.62,4.62,0,0,0,.75-2.32A2.88,2.88,0,0,0,18.12,7a3,3,0,0,0-1.33-1.25,6.16,6.16,0,0,0-2.59-.65h-1a10.1,10.1,0,0,0-2.51.45,20.34,20.34,0,0,0-4.36,2A12.36,12.36,0,0,0,3,10.26a5.85,5.85,0,0,0-1.16,2.1,2.45,2.45,0,0,0,0,1.42,4.67,4.67,0,0,0,1,1.72,12.47,12.47,0,0,0,2,1.66c.63.46,1.29.87,1.91,1.36.21.16.21.16,0,.29A13.54,13.54,0,0,0,3.8,20.68a3.42,3.42,0,0,0-1.1,1.59,2.39,2.39,0,0,0,.08,1.8,1.28,1.28,0,0,0,.81.75A3.51,3.51,0,0,0,5,24.89,4.22,4.22,0,0,0,8,23a4.37,4.37,0,0,0,.76-2.76,3.54,3.54,0,0,0-.3-1.36c0-.06,0-.09,0-.11l.87-.51L9.85,18c-.06.21-.13.4-.17.59a5.35,5.35,0,0,0-.11,2.07,3.93,3.93,0,0,0,.6,1.49,1,1,0,0,0,1.42.09,2.42,2.42,0,0,0,.29-.42,15.22,15.22,0,0,0,.75-1.58s0-.06.06-.07c0,.25,0,.49,0,.74a2,2,0,0,0,.14.77.63.63,0,0,0,1.07.27,2.67,2.67,0,0,0,.64-.81,37.18,37.18,0,0,0,2-4.11c.08-.21.17-.41.26-.63,0,0,0,0,0,.05a6.76,6.76,0,0,0,.76,2.14.14.14,0,0,1,0,.16,14.15,14.15,0,0,1-1,1.23,11.19,11.19,0,0,0-.81,1,.47.47,0,0,0,.39.78h.08a3.32,3.32,0,0,0,2-.66,1.79,1.79,0,0,0,.82-1.53,2.88,2.88,0,0,0-.26-1.2.17.17,0,0,1,0-.18,20.14,20.14,0,0,0,1.46-2.5s0-.07.07-.08A6,6,0,0,0,21,17.54a.17.17,0,0,1-.06.27,5.07,5.07,0,0,0-1.07,1.28,2.41,2.41,0,0,0-.34,1,.66.66,0,0,0,.85.76,3.45,3.45,0,0,0,.42-.14,3.36,3.36,0,0,0,1.36-.89,1.67,1.67,0,0,0,.49-1.29,2.76,2.76,0,0,0-.18-.74c0-.12,0-.17.1-.2h.05a5.46,5.46,0,0,1,3.43,0,2.59,2.59,0,0,1,1.35,1,1.37,1.37,0,0,1-.31,1.94l-.3.21a.1.1,0,0,0-.05.14c0,.07.07.08.14.08H27a1.8,1.8,0,0,0,1.27-1.5v-.41S28.21,19,28.2,19ZM5.46,23.32a1.62,1.62,0,0,1-.72.1.56.56,0,0,1-.52-.54,2.28,2.28,0,0,1,.43-1.4,4.55,4.55,0,0,1,1.06-1,15.35,15.35,0,0,1,1.73-1.16c.08-.05.12-.05.14,0a4,4,0,0,1,.1.85A3.43,3.43,0,0,1,5.46,23.32ZM13,16.4a6.22,6.22,0,0,1-.26,1,28.07,28.07,0,0,1-1.08,2.81,2.22,2.22,0,0,1-.29.52c-.15.18-.28.16-.37-.05a1.58,1.58,0,0,1-.13-.56A5,5,0,0,1,12,16.73a1.74,1.74,0,0,1,.6-.51.52.52,0,0,1,.27-.07C13,16.15,13,16.22,13,16.4Zm4.68,3.77a2.44,2.44,0,0,1-.8.7.52.52,0,0,1-.13.06s-.07,0-.1,0,0-.07,0-.09c.27-.3.55-.59.8-.9l.44-.56A1.24,1.24,0,0,1,17.7,20.17ZM20.54,20c-.09,0-.11,0-.12-.07a.77.77,0,0,1,0-.15,3.41,3.41,0,0,1,.93-1.54c.09-.07.1,0,.12,0a1,1,0,0,1,0,.32A1.43,1.43,0,0,1,20.54,20Z"/></g></g></svg>